<svg id="visual" viewBox="0 0 960 540" width="960" height="540" xmlns="http://www.w3.org/2000/svg" xmlns:xlink="http://www.w3.org/1999/xlink" version="1.1"><path d="M0 464L22.8 463.2C45.7 462.3 91.3 460.7 137 458.2C182.7 455.7 228.3 452.3 274 453.7C319.7 455 365.3 461 411.2 460.2C457 459.3 503 451.7 548.8 450.7C594.7 449.7 640.3 455.3 686 459.8C731.7 464.3 777.3 467.7 823 464.8C868.7 462 914.3 453 937.2 448.5L960 444L960 541L937.2 541C914.3 541 868.7 541 823 541C777.3 541 731.7 541 686 541C640.3 541 594.7 541 548.8 541C503 541 457 541 411.2 541C365.3 541 319.7 541 274 541C228.3 541 182.7 541 137 541C91.3 541 45.7 541 22.8 541L0 541Z" fill="#113f67"></path><path d="M0 472L22.8 472C45.7 472 91.3 472 137 473.3C182.7 474.7 228.3 477.3 274 480.5C319.7 483.7 365.3 487.3 411.2 484.7C457 482 503 473 548.8 468.2C594.7 463.3 640.3 462.7 686 466.8C731.7 471 777.3 480 823 480.2C868.7 480.3 914.3 471.7 937.2 467.3L960 463L960 541L937.2 541C914.3 541 868.7 541 823 541C777.3 541 731.7 541 686 541C640.3 541 594.7 541 548.8 541C503 541 457 541 411.2 541C365.3 541 319.7 541 274 541C228.3 541 182.7 541 137 541C91.3 541 45.7 541 22.8 541L0 541Z" fill="#23567f"></path><path d="M0 496L22.8 497.2C45.7 498.3 91.3 500.7 137 499.8C182.7 499 228.3 495 274 494.8C319.7 494.7 365.3 498.3 411.2 500.3C457 502.3 503 502.7 548.8 502.2C594.7 501.7 640.3 500.3 686 496.8C731.7 493.3 777.3 487.7 823 487C868.7 486.3 914.3 490.7 937.2 492.8L960 495L960 541L937.2 541C914.3 541 868.7 541 823 541C777.3 541 731.7 541 686 541C640.3 541 594.7 541 548.8 541C503 541 457 541 411.2 541C365.3 541 319.7 541 274 541C228.3 541 182.7 541 137 541C91.3 541 45.7 541 22.8 541L0 541Z" fill="#346e97"></path><path d="M0 495L22.8 497.3C45.7 499.7 91.3 504.3 137 504.7C182.7 505 228.3 501 274 501.2C319.7 501.3 365.3 505.7 411.2 506.2C457 506.7 503 503.3 548.8 502.3C594.7 501.3 640.3 502.7 686 505C731.7 507.3 777.3 510.7 823 509.8C868.7 509 914.3 504 937.2 501.5L960 499L960 541L937.2 541C914.3 541 868.7 541 823 541C777.3 541 731.7 541 686 541C640.3 541 594.7 541 548.8 541C503 541 457 541 411.2 541C365.3 541 319.7 541 274 541C228.3 541 182.7 541 137 541C91.3 541 45.7 541 22.8 541L0 541Z" fill="#4687af"></path><path d="M0 528L22.8 526.7C45.7 525.3 91.3 522.7 137 519.8C182.7 517 228.3 514 274 514.2C319.7 514.3 365.3 517.7 411.2 520.7C457 523.7 503 526.3 548.8 526C594.7 525.7 640.3 522.3 686 519.3C731.7 516.3 777.3 513.7 823 513C868.7 512.3 914.3 513.7 937.2 514.3L960 515L960 541L937.2 541C914.3 541 868.7 541 823 541C777.3 541 731.7 541 686 541C640.3 541 594.7 541 548.8 541C503 541 457 541 411.2 541C365.3 541 319.7 541 274 541C228.3 541 182.7 541 137 541C91.3 541 45.7 541 22.8 541L0 541Z" fill="#58a0c8"></path></svg>