<svg id="visual" viewBox="0 0 960 540" width="960" height="540" xmlns="http://www.w3.org/2000/svg" xmlns:xlink="http://www.w3.org/1999/xlink" version="1.1"><path d="M0 453L22.8 455.8C45.7 458.7 91.3 464.3 137 465.2C182.7 466 228.3 462 274 463C319.7 464 365.3 470 411.2 468.3C457 466.7 503 457.3 548.8 453.3C594.7 449.3 640.3 450.7 686 455.2C731.7 459.7 777.3 467.3 823 471C868.7 474.7 914.3 474.3 937.2 474.2L960 474L960 541L937.2 541C914.3 541 868.7 541 823 541C777.3 541 731.7 541 686 541C640.3 541 594.7 541 548.8 541C503 541 457 541 411.2 541C365.3 541 319.7 541 274 541C228.3 541 182.7 541 137 541C91.3 541 45.7 541 22.8 541L0 541Z" fill="#113f67"></path><path d="M0 462L22.8 462.7C45.7 463.3 91.3 464.7 137 468C182.7 471.3 228.3 476.7 274 477.7C319.7 478.7 365.3 475.3 411.2 473C457 470.7 503 469.3 548.8 468.7C594.7 468 640.3 468 686 467C731.7 466 777.3 464 823 465C868.7 466 914.3 470 937.2 472L960 474L960 541L937.2 541C914.3 541 868.7 541 823 541C777.3 541 731.7 541 686 541C640.3 541 594.7 541 548.8 541C503 541 457 541 411.2 541C365.3 541 319.7 541 274 541C228.3 541 182.7 541 137 541C91.3 541 45.7 541 22.8 541L0 541Z" fill="#23567f"></path><path d="M0 490L22.8 492.3C45.7 494.7 91.3 499.3 137 497.5C182.7 495.7 228.3 487.3 274 483.5C319.7 479.7 365.3 480.3 411.2 483C457 485.7 503 490.3 548.8 489.8C594.7 489.3 640.3 483.7 686 483.5C731.7 483.3 777.3 488.7 823 490.2C868.7 491.7 914.3 489.3 937.2 488.2L960 487L960 541L937.2 541C914.3 541 868.7 541 823 541C777.3 541 731.7 541 686 541C640.3 541 594.7 541 548.8 541C503 541 457 541 411.2 541C365.3 541 319.7 541 274 541C228.3 541 182.7 541 137 541C91.3 541 45.7 541 22.8 541L0 541Z" fill="#346e97"></path><path d="M0 504L22.8 505.5C45.7 507 91.3 510 137 509.3C182.7 508.7 228.3 504.3 274 504.3C319.7 504.3 365.3 508.7 411.2 511.5C457 514.3 503 515.7 548.8 514.8C594.7 514 640.3 511 686 508.2C731.7 505.3 777.3 502.7 823 501C868.7 499.3 914.3 498.7 937.2 498.3L960 498L960 541L937.2 541C914.3 541 868.7 541 823 541C777.3 541 731.7 541 686 541C640.3 541 594.7 541 548.8 541C503 541 457 541 411.2 541C365.3 541 319.7 541 274 541C228.3 541 182.7 541 137 541C91.3 541 45.7 541 22.8 541L0 541Z" fill="#4687af"></path><path d="M0 515L22.8 516.5C45.7 518 91.3 521 137 521.8C182.7 522.7 228.3 521.3 274 520.2C319.7 519 365.3 518 411.2 518.5C457 519 503 521 548.8 521.7C594.7 522.3 640.3 521.7 686 519.8C731.7 518 777.3 515 823 515C868.7 515 914.3 518 937.2 519.5L960 521L960 541L937.2 541C914.3 541 868.7 541 823 541C777.3 541 731.7 541 686 541C640.3 541 594.7 541 548.8 541C503 541 457 541 411.2 541C365.3 541 319.7 541 274 541C228.3 541 182.7 541 137 541C91.3 541 45.7 541 22.8 541L0 541Z" fill="#58a0c8"></path></svg>