<svg id="visual" viewBox="0 0 960 540" width="960" height="540" xmlns="http://www.w3.org/2000/svg" xmlns:xlink="http://www.w3.org/1999/xlink" version="1.1"><path d="M0 474L22.8 474.5C45.7 475 91.3 476 137 474.2C182.7 472.3 228.3 467.7 274 464.5C319.7 461.3 365.3 459.7 411.2 456.8C457 454 503 450 548.8 452.5C594.7 455 640.3 464 686 467.8C731.7 471.7 777.3 470.3 823 466.3C868.7 462.3 914.3 455.7 937.2 452.3L960 449L960 541L937.2 541C914.3 541 868.7 541 823 541C777.3 541 731.7 541 686 541C640.3 541 594.7 541 548.8 541C503 541 457 541 411.2 541C365.3 541 319.7 541 274 541C228.3 541 182.7 541 137 541C91.3 541 45.7 541 22.8 541L0 541Z" fill="#113f67"></path><path d="M0 476L22.8 474.5C45.7 473 91.3 470 137 469.2C182.7 468.3 228.3 469.7 274 473.3C319.7 477 365.3 483 411.2 481.8C457 480.7 503 472.3 548.8 469.8C594.7 467.3 640.3 470.7 686 473.2C731.7 475.7 777.3 477.3 823 477.2C868.7 477 914.3 475 937.2 474L960 473L960 541L937.2 541C914.3 541 868.7 541 823 541C777.3 541 731.7 541 686 541C640.3 541 594.7 541 548.8 541C503 541 457 541 411.2 541C365.3 541 319.7 541 274 541C228.3 541 182.7 541 137 541C91.3 541 45.7 541 22.8 541L0 541Z" fill="#23567f"></path><path d="M0 496L22.8 495.5C45.7 495 91.3 494 137 493.5C182.7 493 228.3 493 274 491C319.7 489 365.3 485 411.2 483.3C457 481.7 503 482.3 548.8 484.3C594.7 486.3 640.3 489.7 686 491.7C731.7 493.7 777.3 494.3 823 495.3C868.7 496.3 914.3 497.7 937.2 498.3L960 499L960 541L937.2 541C914.3 541 868.7 541 823 541C777.3 541 731.7 541 686 541C640.3 541 594.7 541 548.8 541C503 541 457 541 411.2 541C365.3 541 319.7 541 274 541C228.3 541 182.7 541 137 541C91.3 541 45.7 541 22.8 541L0 541Z" fill="#346e97"></path><path d="M0 517L22.8 513.8C45.7 510.7 91.3 504.3 137 501.7C182.7 499 228.3 500 274 502.5C319.7 505 365.3 509 411.2 510.5C457 512 503 511 548.8 510.8C594.7 510.7 640.3 511.3 686 510C731.7 508.7 777.3 505.3 823 503.2C868.7 501 914.3 500 937.2 499.5L960 499L960 541L937.2 541C914.3 541 868.7 541 823 541C777.3 541 731.7 541 686 541C640.3 541 594.7 541 548.8 541C503 541 457 541 411.2 541C365.3 541 319.7 541 274 541C228.3 541 182.7 541 137 541C91.3 541 45.7 541 22.8 541L0 541Z" fill="#4687af"></path><path d="M0 524L22.8 524.2C45.7 524.3 91.3 524.7 137 522.5C182.7 520.3 228.3 515.7 274 514.3C319.7 513 365.3 515 411.2 518C457 521 503 525 548.8 524.8C594.7 524.7 640.3 520.3 686 518C731.7 515.7 777.3 515.3 823 517.7C868.7 520 914.3 525 937.2 527.5L960 530L960 541L937.2 541C914.3 541 868.7 541 823 541C777.3 541 731.7 541 686 541C640.3 541 594.7 541 548.8 541C503 541 457 541 411.2 541C365.3 541 319.7 541 274 541C228.3 541 182.7 541 137 541C91.3 541 45.7 541 22.8 541L0 541Z" fill="#58a0c8"></path></svg>