<svg id="visual" viewBox="0 0 960 540" width="960" height="540" xmlns="http://www.w3.org/2000/svg" xmlns:xlink="http://www.w3.org/1999/xlink" version="1.1"><path d="M0 457L22.8 456C45.7 455 91.3 453 137 452.2C182.7 451.3 228.3 451.7 274 452.3C319.7 453 365.3 454 411.2 457.3C457 460.7 503 466.3 548.8 466.2C594.7 466 640.3 460 686 459.8C731.7 459.7 777.3 465.3 823 464.5C868.7 463.7 914.3 456.3 937.2 452.7L960 449L960 541L937.2 541C914.3 541 868.7 541 823 541C777.3 541 731.7 541 686 541C640.3 541 594.7 541 548.8 541C503 541 457 541 411.2 541C365.3 541 319.7 541 274 541C228.3 541 182.7 541 137 541C91.3 541 45.7 541 22.8 541L0 541Z" fill="#113f67"></path><path d="M0 467L22.8 470.3C45.7 473.7 91.3 480.3 137 479.8C182.7 479.3 228.3 471.7 274 468.7C319.7 465.7 365.3 467.3 411.2 468.3C457 469.3 503 469.7 548.8 472.8C594.7 476 640.3 482 686 481.2C731.7 480.3 777.3 472.7 823 470.5C868.7 468.3 914.3 471.7 937.2 473.3L960 475L960 541L937.2 541C914.3 541 868.7 541 823 541C777.3 541 731.7 541 686 541C640.3 541 594.7 541 548.8 541C503 541 457 541 411.2 541C365.3 541 319.7 541 274 541C228.3 541 182.7 541 137 541C91.3 541 45.7 541 22.8 541L0 541Z" fill="#23567f"></path><path d="M0 482L22.8 485.3C45.7 488.7 91.3 495.3 137 498.8C182.7 502.3 228.3 502.7 274 500.8C319.7 499 365.3 495 411.2 491.3C457 487.7 503 484.3 548.8 483.3C594.7 482.3 640.3 483.7 686 485.7C731.7 487.7 777.3 490.3 823 490.2C868.7 490 914.3 487 937.2 485.5L960 484L960 541L937.2 541C914.3 541 868.7 541 823 541C777.3 541 731.7 541 686 541C640.3 541 594.7 541 548.8 541C503 541 457 541 411.2 541C365.3 541 319.7 541 274 541C228.3 541 182.7 541 137 541C91.3 541 45.7 541 22.8 541L0 541Z" fill="#346e97"></path><path d="M0 512L22.8 509.3C45.7 506.7 91.3 501.3 137 500.8C182.7 500.3 228.3 504.7 274 504.5C319.7 504.3 365.3 499.7 411.2 499.8C457 500 503 505 548.8 506.7C594.7 508.3 640.3 506.7 686 505.5C731.7 504.3 777.3 503.7 823 503.5C868.7 503.3 914.3 503.7 937.2 503.8L960 504L960 541L937.2 541C914.3 541 868.7 541 823 541C777.3 541 731.7 541 686 541C640.3 541 594.7 541 548.8 541C503 541 457 541 411.2 541C365.3 541 319.7 541 274 541C228.3 541 182.7 541 137 541C91.3 541 45.7 541 22.8 541L0 541Z" fill="#4687af"></path><path d="M0 525L22.8 523.3C45.7 521.7 91.3 518.3 137 518.8C182.7 519.3 228.3 523.7 274 524C319.7 524.3 365.3 520.7 411.2 518.7C457 516.7 503 516.3 548.8 516.8C594.7 517.3 640.3 518.7 686 519.3C731.7 520 777.3 520 823 520.7C868.7 521.3 914.3 522.7 937.2 523.3L960 524L960 541L937.2 541C914.3 541 868.7 541 823 541C777.3 541 731.7 541 686 541C640.3 541 594.7 541 548.8 541C503 541 457 541 411.2 541C365.3 541 319.7 541 274 541C228.3 541 182.7 541 137 541C91.3 541 45.7 541 22.8 541L0 541Z" fill="#58a0c8"></path></svg>