<svg id="visual" viewBox="0 0 960 540" width="960" height="540" xmlns="http://www.w3.org/2000/svg" xmlns:xlink="http://www.w3.org/1999/xlink" version="1.1"><path d="M0 456L22.8 457.8C45.7 459.7 91.3 463.3 137 463.8C182.7 464.3 228.3 461.7 274 459.2C319.7 456.7 365.3 454.3 411.2 456.3C457 458.3 503 464.7 548.8 467.3C594.7 470 640.3 469 686 467.3C731.7 465.7 777.3 463.3 823 460.5C868.7 457.7 914.3 454.3 937.2 452.7L960 451L960 541L937.2 541C914.3 541 868.7 541 823 541C777.3 541 731.7 541 686 541C640.3 541 594.7 541 548.8 541C503 541 457 541 411.2 541C365.3 541 319.7 541 274 541C228.3 541 182.7 541 137 541C91.3 541 45.7 541 22.8 541L0 541Z" fill="#113f67"></path><path d="M0 477L22.8 478.2C45.7 479.3 91.3 481.7 137 481.2C182.7 480.7 228.3 477.3 274 477.5C319.7 477.7 365.3 481.3 411.2 483C457 484.7 503 484.3 548.8 481.8C594.7 479.3 640.3 474.7 686 473.3C731.7 472 777.3 474 823 473.5C868.7 473 914.3 470 937.2 468.5L960 467L960 541L937.2 541C914.3 541 868.7 541 823 541C777.3 541 731.7 541 686 541C640.3 541 594.7 541 548.8 541C503 541 457 541 411.2 541C365.3 541 319.7 541 274 541C228.3 541 182.7 541 137 541C91.3 541 45.7 541 22.8 541L0 541Z" fill="#23567f"></path><path d="M0 498L22.8 497C45.7 496 91.3 494 137 492.3C182.7 490.7 228.3 489.3 274 487.8C319.7 486.3 365.3 484.7 411.2 484.8C457 485 503 487 548.8 489C594.7 491 640.3 493 686 492.5C731.7 492 777.3 489 823 489.5C868.7 490 914.3 494 937.2 496L960 498L960 541L937.2 541C914.3 541 868.7 541 823 541C777.3 541 731.7 541 686 541C640.3 541 594.7 541 548.8 541C503 541 457 541 411.2 541C365.3 541 319.7 541 274 541C228.3 541 182.7 541 137 541C91.3 541 45.7 541 22.8 541L0 541Z" fill="#346e97"></path><path d="M0 498L22.8 500.5C45.7 503 91.3 508 137 508.3C182.7 508.7 228.3 504.3 274 503.5C319.7 502.7 365.3 505.3 411.2 506C457 506.7 503 505.3 548.8 505.7C594.7 506 640.3 508 686 507.3C731.7 506.7 777.3 503.3 823 503.5C868.7 503.7 914.3 507.3 937.2 509.2L960 511L960 541L937.2 541C914.3 541 868.7 541 823 541C777.3 541 731.7 541 686 541C640.3 541 594.7 541 548.8 541C503 541 457 541 411.2 541C365.3 541 319.7 541 274 541C228.3 541 182.7 541 137 541C91.3 541 45.7 541 22.8 541L0 541Z" fill="#4687af"></path><path d="M0 516L22.8 515.8C45.7 515.7 91.3 515.3 137 517.2C182.7 519 228.3 523 274 523.7C319.7 524.3 365.3 521.7 411.2 521.3C457 521 503 523 548.8 522.7C594.7 522.3 640.3 519.7 686 519.8C731.7 520 777.3 523 823 523.7C868.7 524.3 914.3 522.7 937.2 521.8L960 521L960 541L937.2 541C914.3 541 868.7 541 823 541C777.3 541 731.7 541 686 541C640.3 541 594.7 541 548.8 541C503 541 457 541 411.2 541C365.3 541 319.7 541 274 541C228.3 541 182.7 541 137 541C91.3 541 45.7 541 22.8 541L0 541Z" fill="#58a0c8"></path></svg>