<svg xmlns="http://www.w3.org/2000/svg" viewBox="0 0 24 24" id="Content-Files-Close-Book-Bookmark--Streamline-Pixel" height="24" width="24">
  <desc>
    Content Files Close Book Bookmark Streamline Icon: https://streamlinehq.com
  </desc>
  <title>content-files-close-book-bookmark</title>
  <g>
    <path d="m2.8575 1.1400000000000001 18.285 0 0 1.1475 -1.1400000000000001 0 0 1.1400000000000001 1.1400000000000001 0 0 2.2874999999999996 1.1475 0 0 17.145 1.1400000000000001 0 0 -18.285 -1.1400000000000001 0 0 -3.435 1.1400000000000001 0 0 -1.1400000000000001L2.8575 0l0 1.1400000000000001z" fill="#000000" stroke-width="0.75"></path>
    <path d="m5.1450000000000005 22.86 0 -17.145 6.855 0 0 -1.1400000000000001 -9.1425 0 0 1.1400000000000001 1.1475 0 0 17.145 -1.1475 0 0 1.1400000000000001 19.4325 0 0 -1.1400000000000001 -17.145 0z" fill="#000000" stroke-width="0.75"></path>
    <path d="m18.862499999999997 8.0025 -1.1475 0 0 -3.4275 -1.1400000000000001 0 0 -1.1475 1.1400000000000001 0 0 -1.1400000000000001 -5.715 0 0 1.1400000000000001 1.1475 0 0 1.1475 1.1400000000000001 0 0 11.4225 1.1400000000000001 0 0 -1.1400000000000001 1.1475 0 0 -1.1400000000000001 1.1400000000000001 0 0 1.1400000000000001 1.1475 0 0 1.1400000000000001 1.1400000000000001 0 0 -11.4225 -1.1400000000000001 0 0 3.4275z" fill="#000000" stroke-width="0.75"></path>
    <path d="M17.715 3.4275h1.1475V4.574999999999999h-1.1475Z" fill="#000000" stroke-width="0.75"></path>
    <path d="M4.005 2.2874999999999996h6.855v1.1400000000000001H4.005Z" fill="#000000" stroke-width="0.75"></path>
    <path d="M1.7175 21.7125h1.1400000000000001v1.1475H1.7175Z" fill="#000000" stroke-width="0.75"></path>
    <path d="M1.7175 1.1400000000000001h1.1400000000000001v1.1475H1.7175Z" fill="#000000" stroke-width="0.75"></path>
    <path d="m1.7175 4.574999999999999 1.1400000000000001 0 0 -1.1475 -1.1400000000000001 0 0 -1.1400000000000001 -1.1475 0 0 19.424999999999997 1.1475 0 0 -17.137500000000003z" fill="#000000" stroke-width="0.75"></path>
  </g>
</svg>