<svg xmlns="http://www.w3.org/2000/svg" viewBox="0 0 400 400" id="Reading-A-Book--Streamline-Free-Illustrations" height="400" width="400">
  <desc>
    Reading A Book Streamline Illustration: https://streamlinehq.com
  </desc>
  <g>
    <g>
      <path d="M160.22 193.08c0 0.24 -0.14 0.94 -0.3 0.96a2 2 0 0 1 -0.68 -0.18c-3.68 -1.26 -2.8 0.54 -2.34 0.68 1.36 0.4 0.8 0.18 2.6 0.74a8.7 8.7 0 0 1 -2.46 3.18c-1.24 0.84 -1.52 0.68 -3.68 0.2a49.84 49.84 0 0 0 -20 -0.6c-0.72 0.18 -0.98 0.28 -1.32 -0.38s-0.44 -1.02 0.54 -1.36c2 -0.66 7.18 -1.72 19.22 -0.36 2.98 0.34 4.72 1.28 4.86 0 0 -0.3 -1.3 -0.58 -2.9 -0.84a90.98 90.98 0 0 0 -13.36 -0.92 28.96 28.96 0 0 0 -7.56 0.98c-0.94 0.38 -1.08 0.32 -1.18 0a2 2 0 0 1 -0.22 -1c0 -0.34 0.12 -0.4 0.46 -0.48a52.76 52.76 0 0 1 7.38 -0.98c8.94 -0.38 11.04 0.28 13.08 0.66 1.58 0.3 2 0.74 2.44 0 0.68 -1.18 -6.6 -2.14 -13.8 -2a55.14 55.14 0 0 0 -8.88 1.02c-0.44 0 -0.84 0.44 -1.06 -0.38 0 -0.34 -0.12 -0.48 0 -0.6a1.54 1.54 0 0 1 0.58 -0.2 47.88 47.88 0 0 1 13.84 -1.16 66 66 0 0 1 13.84 2.4c0.68 0.3 0.84 0.46 0.9 0.62Z" fill="#ffffff" stroke-width="1"></path>
      <path d="M159.22 190.24c0.42 0 0.9 1.08 0.9 1.46 -0.8 0 -13.2 -5.06 -26.78 -1.62a15.18 15.18 0 0 0 -2.42 0.64c-0.26 0.16 -0.32 0 -0.36 0a1.18 1.18 0 0 1 -0.14 -0.74c0.46 -1.1 7.02 -2.24 8.54 -2.34a62.92 62.92 0 0 1 20.26 2.6Z" fill="#ffffff" stroke-width="1"></path>
      <path d="M156.42 182c4 11.64 2 0.88 -15.06 0.56 -1.04 0 -2.54 0.12 -2.42 0 0.34 -0.52 2.68 -0.96 3.22 -1.08a38.3 38.3 0 0 1 12.2 -0.62c0.8 0.04 1.64 -0.3 2.06 1.14Z" fill="#ffffff" stroke-width="1"></path>
      <path d="M178 176.98c1.34 0.42 -17.64 12.22 -17.86 11.6 -2.5 -6.58 -1.84 -8.58 -6.82 -12.58a24.76 24.76 0 0 0 -6.98 -4 40.5 40.5 0 0 0 -4.34 -1.54c-1 -0.28 -1.32 -0.7 -0.18 -0.72s1.78 -0.14 2.4 -0.1l3.82 0c22.86 0.96 24.88 5.7 29.96 7.34Z" fill="#ffffff" stroke-width="1"></path>
      <path d="M232.48 198.44c3.36 2.4 3.1 2.24 2.7 2.44 0 0 -0.28 0.22 -16.66 8.24 -12 5.8 -6.12 6.2 -13.32 2.36 -8 -4.32 -43.16 -21.22 -43.38 -22 0 -0.22 1.14 -0.68 4.34 -2.5 6.42 -3.66 13.38 -9.22 22.64 -14.2 5.68 -3.06 3.38 -3.4 8.3 0a62 62 0 0 0 6.18 4c3.12 3.32 6.3 3.38 5.14 3.64 -12 2.76 -18.52 1.78 -17.42 5.5 0.74 2.54 6.36 0.96 14.94 0.36 1.64 -0.1 1.6 0.12 0.88 0.26a127.2 127.2 0 0 0 -13.22 3.02c-2 0.62 -2 1.34 -2 2.2a1.64 1.64 0 0 0 1.5 1.54 67.66 67.66 0 0 0 8.96 -1.16s0.18 0.12 0 0.4c-0.68 2.16 0.48 3.24 2.24 3.12a43.28 43.28 0 0 1 7.36 -0.36c-0.72 0.34 -3.22 0.72 -5 1.32a1.78 1.78 0 0 0 -0.3 3.36c2.36 1.54 4.82 0.34 8.32 -0.16 7.08 -1 0.82 0.34 14.54 -1.26 2.34 -0.22 2.92 -0.36 3.26 -0.12Z" fill="#e3b27d" stroke-width="1"></path>
      <path d="M159.48 200.66c-1.8 -0.82 -2 -0.84 -1.24 -1.6a8.9 8.9 0 0 0 3.1 -7.48c-0.24 -0.92 0.24 -0.4 7.04 3.04 38.34 19.32 39.56 19.76 40.3 20.62 0.32 0.38 -0.78 3.06 -2.64 4.68a4.38 4.38 0 0 1 -5.64 0.88c-2 -0.82 -5.34 -3.1 -14.48 -7.36 -4.24 -2 -6.6 -3.36 -13.5 -6.6 -13.24 -6.2 -12.98 -6.18 -12.94 -6.18Z" fill="#e3b27d" stroke-width="1"></path>
      <path d="M155.38 200.34c0.32 0 17.46 8.14 14.3 7.12 -12.14 -4 -11.88 -5.32 -24.22 -7.52 -5.52 -0.98 -9.86 -1.36 -4.38 -1.44a56.46 56.46 0 0 1 14.3 1.84Z" fill="#e3b27d" stroke-width="1"></path>
      <path d="M386.36 253.86a14.78 14.78 0 0 1 -1.02 16.62c-4.44 6 -9.7 4.98 -12.44 8a12.16 12.16 0 0 1 -5.22 3.46 26.74 26.74 0 0 0 -5.82 1.84c-4 2.24 -1.6 8 -3.08 8s-1.46 -0.12 -1.78 -1.3c-2.54 -9.18 1.8 -11.68 6.4 -16 7.78 -7.44 5.02 -10.76 5.66 -12 4.94 -9.86 15.42 -12.06 17.3 -8.62ZM382.1 258c0.34 -0.42 0 -1.32 -0.78 -0.88 -1.6 0.8 -1.16 3.56 -3 5.9 -1.02 1.26 -3.6 2.54 -5.54 4.42 -2.92 2.86 -2 3.54 -4 5.82 -2.44 2.62 -4.68 2.18 -6.76 5.64 -1.74 2.88 0 3.58 0.78 1.54 1.56 -3.66 4.56 -3.24 7.26 -6.24 2 -2.22 1.7 -3.52 4 -5.62 3.14 -2.92 5.02 -3.06 6.24 -5.64 1.34 -3.06 0.86 -3.78 1.8 -4.94Z" fill="#d4f2e2" stroke-width="1"></path>
      <path d="M375.08 229.76c2.66 14.16 -9.56 18 -8.68 29.24 0.32 4.24 2.42 5.42 -1.44 11.14 -3.14 4.66 -12.86 7.76 -10 19.88 0.44 1.82 0.9 2 0 2l-3.3 0c-0.7 -0.12 -1.34 0.4 -1.6 -0.28 -0.52 -1.34 -3.68 -6.46 -3.5 -10 0 -1.14 0.44 -2.44 4.34 -5.82a9.7 9.7 0 0 0 2.68 -8c-0.26 -2.8 -1.06 -3.2 -0.64 -6 0.76 -4.98 3.8 -4.76 0.62 -15.68a22.44 22.44 0 0 0 -2 -3.82 19.64 19.64 0 0 1 1.22 -9c1.82 -4.58 2.44 -7.74 6.9 -10.46 2.38 -1.46 5.5 -3.34 8 -2.5 3.22 1.08 6.18 2.84 7.4 9.3Zm-10.64 0.1c3 -5.14 -0.66 -5.38 -2 0.52 -0.5 2.12 -0.72 6.26 -1.12 8.26 -1 5.08 -3.18 6.22 -3.72 10.76s0.64 6.22 0.6 8c-0.12 4.9 -3 7.54 -1.5 8.16a0.54 0.54 0 0 0 0.7 -0.24c4.88 -8 0.88 -10.38 1.88 -15.4 1.56 -8 3.08 -3.6 4.32 -15.14 0.4 -3.44 0.4 -4.14 0.84 -4.92Z" fill="#d4f2e2" stroke-width="1"></path>
      <path d="M368 291.72c0 1.3 -1 11.44 -1.9 11.66 -5.2 1.22 -16 1.28 -23.24 1.54a179.2 179.2 0 0 1 -24.52 -0.76c-6.34 -0.64 -6.46 -1 -6.96 -11.88 0 -0.88 0.24 0 3.14 0.62a121.4 121.4 0 0 0 25.34 1.48c3.18 -0.68 15.26 0.12 25.46 -1.58 1.9 -0.3 2.68 -1.74 2.68 -1.08Z" fill="#fff5db" stroke-width="1"></path>
      <path d="M363.32 285.5c2.78 0.72 6.18 4.16 2.4 5.34 -0.66 0.2 -4.66 1.22 -4.64 0.24a10 10 0 0 1 0.46 -5.02c0.88 -1.38 1.16 -0.7 1.78 -0.56Z" fill="#edc294" stroke-width="1"></path>
      <path d="M364.14 305.62c1.36 -0.2 -4 36.78 -4.3 38s-0.46 1.26 -1.02 1.32c-19.32 2.2 -34.5 0.9 -38 -0.34 -0.9 -0.32 -0.82 -1.36 -1.04 -2.54 -1.24 -6.96 -5.6 -31.1 -5.6 -36.84 0 -0.68 1.04 0.6 11.58 1.16a313.2 313.2 0 0 0 38.38 -0.76Z" fill="#fff5db" stroke-width="1"></path>
      <path d="M362.48 345.5c0 0.42 -0.72 7.52 -0.94 8.7 -0.28 1.58 -1.14 1.66 -3.88 2.32a94.68 94.68 0 0 1 -18.22 1.38c-9.32 0 -18.72 -1.18 -20.44 -3.12 -0.8 -0.92 -1.14 -7.24 -1.18 -7.74 0 -2.88 -0.54 -0.74 5.18 -0.16a89.88 89.88 0 0 0 17.48 1 160.26 160.26 0 0 0 19.5 -1.48c1.8 -0.28 2.46 -1.76 2.5 -0.9Z" fill="#fff5db" stroke-width="1"></path>
      <path d="M351.4 245.68c-0.9 -2.2 -2.46 -2.64 -4.78 -4 -12.3 -7.52 9.32 -26.44 1.88 -40 -4.98 -9.32 -22.1 -5.38 -22.54 11.86 -0.16 5.6 0.64 6.38 1.66 10.94 0.18 0.76 0.36 1.16 0.84 1.36 4 1.76 4.72 6 5.12 7.5a14.54 14.54 0 0 1 0.5 3.54c0.18 7.22 -4.88 12 -2.24 13.24s2.88 0.86 4.14 1.76c5.62 4 7.58 13.38 -0.4 22.46 -2 2.4 -4.56 4.46 -2.84 6.9 3.08 4.38 4.6 2.4 5.36 10.76 0 0.98 -0.14 0.64 2.76 0.54 1.4 0 0.84 -0.22 0.5 -1.48 -0.8 -3 0.88 -2.66 -2.44 -8.34 -2.54 -4.38 0.38 -7.62 3.54 -12.12 2.7 -3.82 -1.26 -6.84 0 -11.14 4.44 -14.38 -6.34 -12.7 -7.22 -23a30.72 30.72 0 0 1 -0.12 -3.44c0.16 -9.82 4.74 -14.28 2.48 -23.56 -0.26 -1.14 0.86 -1.12 1.18 -0.68a3.3 3.3 0 0 1 0.66 1.82c1.76 8.78 -4.16 18.58 -2.44 26 0.4 1.68 0 2.14 0.82 3.18a33.78 33.78 0 0 0 3.6 4.54c2.68 2.22 4.58 9.06 4 12 -0.8 3.8 -2 4.5 -1.24 6.7 3.6 10.1 -4.42 10.78 -4.44 16.56 0 2.32 3.12 4.52 2.92 8.92 0 1.28 0.68 3.9 1.02 3.88 4.94 -0.5 4.94 0.54 4.22 -1.26 -2 -4.94 -2.46 -5.6 -2.68 -7.26 -0.36 -2.8 -0.36 -5.2 3.44 -8.44 5.36 -4.62 2.54 -9.18 2.4 -11.74 -0.34 -6.48 4.94 -6.88 0.34 -18Z" fill="#d4f2e2" stroke-width="1"></path>
      <path d="M333.72 252.94c3.34 0.78 6 6.52 5.38 9.48 -2 9.84 -3.2 8 -7.74 14 -4 5.32 3.88 8.14 4.64 12.48 0.88 4.96 0.32 4.18 -4.3 3.76 -0.64 0 -0.46 -1 -1.04 -3.88a11.2 11.2 0 0 0 -2.44 -5.72c-1.42 -1.46 -3.66 -1.6 -3.76 -5.42 -0.26 -9.34 5.14 -2.24 7.76 -14.64a7.68 7.68 0 0 0 -0.32 -5.74 6.16 6.16 0 0 0 -2.72 -2.12c-4.24 -2 -5.18 -2 -5.62 -4.92 -0.6 -3.72 1.88 -5.86 1.86 -10.36 0 -2.46 -1.48 -1.88 -1.46 -0.84 0.12 4.78 -2.98 7 -1.62 12.74 1.1 4.72 10 3.2 8.78 9.52 -2.18 10.88 -6.44 8 -7.52 12a10.12 10.12 0 0 0 1.06 8.78c0.82 1.1 2.58 1.12 3.58 3.58 0.42 1.04 2.24 6.92 1.14 6.74 -0.62 0 -4.84 0.38 -5.56 -0.72 -2.4 -3.66 -1.04 -4.76 -2.32 -6.82 -2 -3.38 -8.56 -7.26 -6.68 -12.76a11.66 11.66 0 0 1 3.26 -6.92c1.46 -1.4 3.04 -1.86 4 -4a5.48 5.48 0 0 0 0.3 -5.02 17.04 17.04 0 0 0 -3.76 -3.38c-2.3 -1.8 -3.76 -4.4 -2.72 -9.74 0.88 -4.5 0.86 -8.78 3.38 -12.66 3.34 -5.18 12.16 -6 12.96 6.4 0.04 8.84 -7.84 13.98 1.48 16.18Z" fill="#d4f2e2" stroke-width="1"></path>
      <path d="M334.7 122.26c0.34 4 -2.86 10.9 -4.16 11.42 -0.9 0.36 -2.24 0.98 -2 0.24s1.12 -1.76 -1.1 -0.8c-0.64 0.26 0 -0.62 0.64 -2.44 0.2 -0.62 -0.2 -0.92 -0.76 -0.58s-2 1.3 -3.38 2c0 -0.6 0.12 -2 -0.1 -2.16s-0.68 0.32 -1.22 0.54c-0.86 0.36 0.66 -2 0 -2.72s-0.84 0 -2.34 0.88c-1 0.58 1.42 -1.84 2.2 -4a20.6 20.6 0 0 0 0.14 -6.66c-0.4 -2.98 -2 -2.78 -3.9 -6.46 -3.88 -7.42 -7.5 -7.5 -12.32 -9.84a28.56 28.56 0 0 0 -5.74 -1.48c-0.32 0 -0.42 0 -0.78 -2.26 -0.96 -6 -1.34 -6.72 0.5 -11.36a6 6 0 0 1 5.14 -3.22c2.34 0 2 -1.4 1.5 -1.62s-0.52 -0.2 -3.48 0.26c-2.58 0.4 -2.38 3.2 -0.78 -4 0.72 -3.2 0 -8.26 -1.06 -8.48 -0.22 0 -0.9 0 -0.76 0.2s-0.14 0.58 0 0.86a14 14 0 0 1 -0.22 9.08c-0.28 0.76 -0.48 2.18 -0.7 2.82a40.4 40.4 0 0 0 -2.42 8c-0.5 4.18 1.26 8.82 1.1 10.22s-1.28 -1.84 -1.8 -0.28c-0.34 1.04 0.78 1.44 0.86 2.46a2.96 2.96 0 0 1 -0.42 1.2c-0.5 1.12 -2.42 -4.52 -2.8 -1.52 -0.12 0.94 1.82 2.74 0.66 2.82 -0.26 0 -0.98 0 -1.14 -0.2a12.34 12.34 0 0 1 -1.06 -2.34 1 1 0 0 0 -0.78 -0.5c-1.04 0.18 -0.28 1.56 0 2.22s0 0.48 -0.16 0.44c-1.26 -0.86 -2.14 -2.12 -3.04 -6 -1.04 -4.28 1.32 -8.7 1.04 -13.02 -0.1 -1.18 0.2 -7.5 0.2 -7.54 0.2 -2.5 -0.98 -3.82 -1.7 -6 -0.34 -1.04 -1.5 -0.36 -1.36 0.32 0.5 2.28 1.32 3.04 1.52 4.48a15.66 15.66 0 0 1 -0.12 3.64c-0.12 10.22 0 9.2 -1.06 9.44 -3.34 0.74 -6 3.06 -4.88 6.84 0.22 0.74 -0.44 0.38 -0.86 0.34 -2 -0.16 -1.06 0 -2 -1.2 -4.42 -6 -6.6 -5.18 -5.3 -7 2.3 -3.2 5.42 -0.18 1.04 -7.5a13.7 13.7 0 0 1 -1.32 -2.78 0.72 0.72 0 0 1 0.26 -0.8c2.58 -2.8 3.34 -3.24 3.26 -5.78 0 -1.3 -1.38 -0.76 -1.44 0a3.48 3.48 0 0 1 -0.86 2.2c-5.78 6 -4 3.14 -3.88 8.22 0 1.38 -1.38 2 -1.54 1.64a17.04 17.04 0 0 1 -0.52 -1.72c-0.2 -1.26 -1.42 -1.1 -1.28 0.22 0.24 2.18 1 2 0.4 2.24s-1.26 0.56 -1.58 -0.16c-0.88 -2 -0.38 -2.34 -1.22 -2.38 -1.38 0 0.14 2.88 -1.24 1.54a13.66 13.66 0 0 1 -1.22 -4.92c0 -3.58 1.88 -4.44 4.38 -8 2 -2.98 -2.68 -5.78 -0.72 -12a4.38 4.38 0 0 0 0 -1.02 1.16 1.16 0 0 0 -0.84 -1.3c-2.94 -1.28 -2.92 -2.86 -3.52 -2.92s-0.24 -1.26 -1.46 -1.04c-0.84 0.12 0.1 -0.28 0 -5.16 -0.14 -3.86 0 -4 -0.42 -4.7s-0.8 -2.16 -2.92 -5.6c-0.72 -1.14 -0.74 -1.08 0.58 -1.42a8.26 8.26 0 0 1 5.1 0.56c0.42 0.16 0.1 0.42 -0.58 1.2 -1.88 2.1 -1.84 4 -0.44 2.38a22 22 0 0 1 2.84 -2.78 12.62 12.62 0 0 1 9.66 -2.76c1.58 -0.18 0.28 -1.14 -2 -1.52 -0.28 0 0.72 -2 1.24 -2.8a27.58 27.58 0 0 1 2.86 -3.26c0.54 -0.56 0.62 -0.62 0.92 0a16.96 16.96 0 0 1 2 7.34c0 0.4 -0.12 0.5 -0.6 0.56s0 1 0.42 1.38c2.22 2 3.14 4 4.98 5.68a3.72 3.72 0 0 0 2.44 1.18c0.36 0 0.7 0 0.62 0.26 -0.24 0.7 -2 1.1 -1.1 1.88a1.06 1.06 0 0 1 0.56 0.92 11.58 11.58 0 0 1 -1.04 5.12c-0.54 1.16 -0.22 1.46 0 1.54a0.98 0.98 0 0 0 1 -0.4c0.3 -0.78 0 0.34 9.38 3.78 6.82 2.52 3.82 2.34 5 3.26 11.86 9.34 9.24 17.34 11.16 20.5 4.6 7.62 2.46 13.44 5.14 16.52 0.82 0.96 0.88 0.14 2.26 1.66s2.84 1.36 5.42 4.34c4.74 5.5 5.56 4.58 8.2 12.86 0.52 1.06 0.24 0.44 0.82 6.7Zm-56.22 -86.98c0.36 -1.82 -0.28 -6.72 -1.3 -6.22 -0.54 0.28 0.16 1.8 0.38 3.12a12.42 12.42 0 0 1 0 3.18c0 0.64 0.7 1.04 0.92 -0.08Zm-1.62 16.58c1.08 -1.62 1.12 -2.48 0.98 -2.9s-0.72 -0.32 -0.96 0.2c-0.6 1.28 -1.48 2.48 -3.06 2.38 -3.3 -0.24 -2.22 -0.78 -1.82 -2.84a1.32 1.32 0 0 0 -0.22 -1.06c-0.48 -0.42 -1.7 0.5 -1.84 0.62 -0.94 0.84 -2.64 0.42 -1.84 1.7a1.6 1.6 0 0 0 0.8 0.64 10.82 10.82 0 0 1 1.68 0.72c0.2 0 -0.24 1.66 -0.74 2.16a2.26 2.26 0 0 1 -2.34 0.7c-0.58 -0.2 -0.98 -0.72 -1.2 -0.76 -0.7 -0.14 -0.42 1 0.28 1.56a3.02 3.02 0 0 0 3.4 0.18 3.58 3.58 0 0 0 1.72 -2.3c0.22 -0.2 0.44 -0.24 1.1 0 1.48 0.26 3.36 0.1 4.06 -1Zm-3.22 -5.26c0.92 -0.46 0 -2.84 -1.36 -2.2a1.06 1.06 0 0 0 -0.34 1.18 1.22 1.22 0 0 0 1.7 1.02Zm-7.28 2.66c1 -0.76 -0.44 -2.72 -1.36 -2a0.76 0.76 0 0 0 -0.22 1c0.26 0.82 0.98 1.44 1.58 1Z" fill="#d9d9d9" stroke-width="1"></path>
      <path d="M325.6 141.44c4.2 -2.4 4.74 -5.38 4.62 -2.72 -0.62 14.54 -5.22 23.34 -20.9 60.36 -1.72 4 -1.26 3.88 -2.44 3.66 -2.32 -0.46 -2.4 -0.1 -2.26 -1.56a46.24 46.24 0 0 0 -0.18 -9.84c-5.72 -37.24 -4.78 -27.5 -2.82 -31.4 0.82 -1.62 0.4 -1.82 -0.9 -6.14 -0.96 -3.12 12.86 -27.02 6.54 -39.1 -1.8 -3.42 -3.6 -2.5 -2.48 -1.08 7.38 9.36 -2.42 27.68 -5 36.8 -4.94 -10.96 -1.9 -21.7 -8.64 -25.76 -9.74 -5.84 -8.16 -5.5 -22.94 -3.8 -4.4 0.5 -2.46 -0.2 -5.08 -0.12 -1.58 0 -1.02 1.08 -2.54 -2.92 -0.2 -0.58 0.9 -1.06 2.56 -3.9 0.16 -0.26 0.2 0 0.2 0 0 2.94 -2.44 6.78 0.42 6 8.64 -2.22 8.52 -11.66 7.62 -2.34 -0.14 1.32 0.76 0.8 1.28 0.64a15.82 15.82 0 0 0 8.82 -18.9c0 -0.32 0 -0.48 0.28 -0.42 0.74 0.14 5.14 0.42 5.18 0.44 2.52 0.48 0.6 8.6 9.22 7.38 2 -0.3 2.62 -2 3.48 -3.72s-0.22 -2.36 5.64 -0.34c12.94 4.44 10.9 9.8 14.58 12.96 1.8 1.54 1.54 3.62 1.54 5.44 0 10.32 -12.24 10.3 -12.3 16.78a7.36 7.36 0 0 0 0.68 4.48 7.58 7.58 0 0 0 5.78 2.94c2.14 0.3 4.24 -0.54 10.04 -3.82Z" fill="#c5cdf3" stroke-width="1"></path>
      <path d="M327.32 136.34c1 -0.2 0.92 -0.4 1.82 -0.38 -1.72 2.72 -10 7.74 -13.34 7.72a4.86 4.86 0 0 1 -4.18 -8c0.76 -0.88 0.52 -0.32 6.22 -4.56a2.3 2.3 0 0 1 1.26 -0.74 10 10 0 0 0 2.16 -0.84c0.28 -0.12 0.52 0 0.4 0.3 -0.32 0.8 -0.92 2.76 0.34 2.22 0.9 -0.58 1.06 -0.62 1.06 -0.58l0 1.36c0.1 2.22 4.1 -2 3.7 -1.16 -0.22 0.46 -0.74 1.42 -1.32 2.38 -0.3 0.52 -0.5 1.18 0.5 0.82s1.36 -0.68 1.4 -0.54 -1.14 2.22 -0.02 2Z" fill="#ffffff" stroke-width="1"></path>
      <path d="M321.64 291.68c0.28 0.56 -0.3 0.28 -2.96 0.16 -0.94 0 -0.7 -0.44 -1.88 -3.54 -2.36 -6 -10.44 -10.32 -12 -13.7 -5.3 -11.36 2.24 -17.68 6 -17.54a8 8 0 0 1 4.22 1.26 8.2 8.2 0 0 1 3.8 3.44c0.26 0.32 0 0.34 -1.32 1.4a14.3 14.3 0 0 0 -4 5.5c0 -0.12 -1.18 -6.46 -2.44 -5.88 -0.24 0.12 -0.58 0.16 -0.62 0.58a2.3 2.3 0 0 0 0 1.16c1.08 2.24 0.76 4.74 2.14 6.92 0.46 0.72 -0.44 2.82 0.28 4.98 1.68 5.08 4 5.54 6.22 8.44 2.04 2.26 0.92 3.32 2.56 6.82Z" fill="#d4f2e2" stroke-width="1"></path>
      <path d="M316 291.08c0.18 0.58 -0.58 0.3 -2.66 -0.24 -0.7 -0.18 -1.22 0 -1.72 -0.44a3.28 3.28 0 0 1 -0.4 -1.3 8.92 8.92 0 0 1 2.62 -2.12c0.84 -0.56 1.82 3.02 2.16 4.1Z" fill="#edc294" stroke-width="1"></path>
      <path d="M315.78 212.86a6.82 6.82 0 0 1 -3.2 6.38c-1.78 1.26 -4.16 2.58 -12.56 2.14 -9.14 -0.46 -26.26 -3.58 -33.52 -3.3 -5.68 0.22 -8.52 -0.12 -11.26 4.48 -17.76 29.74 -14 31.52 -25.68 36.5 -18.24 7.74 -76 19.32 -95.22 14.42 -6.62 -1.68 -12.32 -0.58 -20.34 -14.3 -0.9 -1.52 -1.3 -1.7 -0.72 -2.3a33.52 33.52 0 0 0 5.26 -10.14c0.22 -1.02 0 -0.38 4.26 2.82 3.72 2.8 9.8 3.04 12.28 3.04 9.46 0 27.54 -3.1 28.7 -3.18 30 -2.38 24.3 -1.08 38.8 -4 30 -6.2 22 -0.36 30 -14.42 0.18 -0.34 3.6 -8 3.62 -8.12 7.62 -18.84 11.84 -19.44 24.64 -18.46 3.76 0.3 4 -0.24 5.06 0.42a198.58 198.58 0 0 0 27.14 5.78c4.76 0.3 10.76 -1.56 11.12 -6.22 0 -0.8 0.6 -0.44 3.74 0.42a10 10 0 0 1 7.88 8.04Z" fill="#c5cdf3" stroke-width="1"></path>
      <path d="M305.4 223.32c9.26 -0.8 10.84 -7.58 3.08 5.72 -20.96 36 -21.76 41.48 -29.38 53.68a6.8 6.8 0 0 1 -5.04 2.86 59.88 59.88 0 0 1 -12.92 0.68c-18 -1.48 -73.6 -3.4 -114.66 -10.14 0.96 -0.2 6.38 0 6.38 -0.12 13.14 0 52.46 -5.6 73.44 -13.6a33.34 33.34 0 0 0 10.64 -5.28 22.92 22.92 0 0 0 4.16 -5.62c4 -6.28 10 -17.76 13.4 -24s4.36 -6.42 6.16 -6.96c10.16 -2.98 33.68 3.76 44.74 2.78Z" fill="#c5cdf3" stroke-width="1"></path>
      <path d="M300 156.38c0.32 1.02 0.74 1.1 -0.48 0.86a58.66 58.66 0 0 0 -6.76 0.38 19.18 19.18 0 0 0 -5.12 -0.16c-3.56 0.72 -4.28 1.76 -8.14 3.8 -1.78 0.94 -2.98 0.98 -4.16 1.82 -0.16 0.12 -0.22 0 -0.24 -0.1 -0.58 -6.4 -1.54 -6.4 -1.1 -10.94 0.5 -5.08 -0.84 -8 -0.76 -15.86a54 54 0 0 1 1.88 -9.28c0 -0.36 -0.26 -0.38 -0.5 -0.5 -0.86 -0.36 -3.62 6.88 -2.4 16.76 0.84 6.82 0 10 0.34 12.62 0.62 4.88 0.7 1.38 1.12 6.98 0.16 2.36 -0.14 3.36 1.52 4.12 2.62 1.22 2.98 0.8 2.98 1.52 0 1.52 0.84 7.14 0.86 7.68 0.14 2.62 -4.62 8.98 -6.28 12.38 -0.2 0.4 -2.74 0.22 -5.42 0 -20.9 -2.46 -26.94 -1.36 -48.58 -10 -0.5 -0.2 -0.44 -0.54 -0.2 -1.14s2.6 -5.44 3.58 -8.36a11.12 11.12 0 0 0 0.58 -2.92 25.64 25.64 0 0 1 0.2 -7.2 4.7 4.7 0 0 0 0.26 -1.28c0.3 -3.38 1.86 -2.62 10.74 -10.54 1.66 -1.5 7.18 -9.86 6.7 -11.5 -0.38 -1.34 -2.7 3.36 -3.22 4.28 -5.7 10.1 -14.32 12.12 -15.4 15.54a25.18 25.18 0 0 0 -1.04 8.3c0 6.82 1.44 3.42 -8 -1.76 -1.02 -0.58 -0.94 0 2.7 -4.34 0 0 1.84 -2 2.32 -2.42a46 46 0 0 0 5.3 -6.58c2.94 -4 4.2 -6.88 8.18 -9.28 14 -9.28 13.2 -8.78 13.58 -7.86s-1.76 1.12 -2.74 4.3a49.78 49.78 0 0 1 -2 5.78c-1.42 3.78 3.26 10.2 12.96 -2.56a44 44 0 0 1 4.4 -5.54c3.76 -3.42 4.2 -6 6.5 -8.42 0.68 -0.72 0.56 -1.8 -0.28 -1.62s-0.54 0.44 -1.32 -0.78c-0.26 -0.42 1.82 -0.3 2.32 -0.2a89.14 89.14 0 0 0 11.68 -0.76c8 -0.66 7.22 1.1 10.94 2.72 4.28 1.86 5.58 3.52 6.62 7.4 0.76 2.82 0.82 6.7 2.3 12.82 0.62 3.18 2.04 7.18 3.58 11.84Zm-29.82 -7.68c1.86 2.68 -0.6 -8.84 -0.52 -14.8 0 -3.26 0.24 -4 -0.66 -4 -1.82 -0.26 0.24 17.52 1.12 18.8Zm-17.02 25.54s5.52 0.18 4.76 -1.06c-0.52 -0.84 -0.32 -0.58 -3.68 -0.32 -1.72 0.14 -0.72 -0.34 -2.46 0 -6.3 1.14 -13.08 -3.38 -14.3 -3.1 -0.38 0 0 0.4 0 0.58s-0.54 0.16 -0.18 0.36a23.74 23.74 0 0 0 15.8 3.54Zm-9.16 2.7a0.84 0.84 0 0 0 1.08 -0.8c-0.94 -1.08 -2.68 -1.24 -3.54 -1.66a26.62 26.62 0 0 1 -3.78 -2.14c-0.8 -0.38 -2.64 0.96 3.32 3.52 0.92 0.4 1.88 0.66 2.92 1.08Z" fill="#ffccce" stroke-width="1"></path>
      <path d="M287.42 92c0.44 0 0.56 0 0.56 0.54 -1.24 6.56 1.06 5.72 -2.98 5.4 -0.6 0 -0.68 -0.14 -0.74 -0.72 -0.26 -2.68 -0.66 -3 2.6 -5a1.72 1.72 0 0 1 0.56 -0.22Z" fill="#d9d9d9" stroke-width="1"></path>
      <path d="M286.74 354.26c0.5 1.04 -4.82 0.78 -6.22 0.74 -2 0 -25.78 -45.54 -32.3 -56.12 -0.78 -1.28 -2.18 -0.92 -0.84 1.52 2 3.78 2.46 4 1.02 3.68s-13.74 -1.18 -13.84 -1.18c-3.2 0 -16 -1.72 -16.3 -1.74s-0.52 0 -0.52 -0.78c0 -2.1 0.76 -6.76 0.88 -9.42a1.52 1.52 0 0 0 -0.34 -1.2c-0.36 -0.32 -1.3 -0.76 -1.48 0.3 -2.44 15.9 -6 74.92 -7.04 82.38 -0.18 1.14 -0.94 0.96 -2.36 1.22a6.54 6.54 0 0 1 -4 -0.5c-0.48 -0.3 -0.64 -0.48 -0.7 -3.38 -0.2 -8.48 -1.4 -37.42 -1.38 -37.72 0.12 -1.36 -0.34 -44 -0.34 -44a0.78 0.78 0 0 0 -1.54 0.18c-0.56 9.48 0 11.06 -0.74 10.74s-69.32 -9.86 -77.72 -11.72c-1.38 -0.3 -1.82 -1.2 -2.24 -0.9 -2.72 2 6.68 3.26 10 3.6 0.52 0 -35.22 65.38 -36.84 65.64l-1.42 0c-4.46 -0.1 -5.74 0.22 -4.52 -2 3.56 -6.34 27.56 -72.9 32 -85.34 0.32 -0.92 0.9 2 5.84 4.16 24 10.78 137.3 14.72 137.38 16.12 0.1 0.42 15.84 45.7 25.56 65.72Z" fill="#fff5db" stroke-width="1"></path>
      <path d="M280.6 102.4a14.16 14.16 0 0 1 -0.8 6.58 11.86 11.86 0 0 1 -3.8 5.46c-0.28 0.24 -2.72 2.14 -3.1 1.86s0.46 -2.96 -0.44 -6c-0.1 -0.34 -0.44 -0.38 -0.76 -0.18 -0.8 0.5 -0.26 2.48 -3.04 5.14 -1.5 1.44 -5.2 4.56 -4.68 2.56a20.4 20.4 0 0 0 0.32 -7.86c-0.1 -0.7 -0.94 -0.78 -1.06 -0.14 -0.84 4.7 -6.14 9.2 -6.14 7.7a30.36 30.36 0 0 0 -1.22 -12c-0.38 -1.68 4.9 -0.2 4.32 -10.44 -0.34 -5.88 -4.72 -7.38 -7.74 -5.22a5.26 5.26 0 0 0 -2.28 3.56c0.16 1.02 -0.94 1.26 -2.56 1.8 -3.36 1.12 -7 -0.92 -10 -2.94 -1.64 -1.12 -4.66 -5.02 -10.88 -7.3 -4.5 -1.64 -7.34 2.76 -9.1 -0.6a5.88 5.88 0 0 1 0.12 -4.16 30.4 30.4 0 0 1 4.72 -8.98c4 -4.78 6.38 -6.48 9.86 -7.52a19.66 19.66 0 0 1 13.04 0 16 16 0 0 1 7.38 4.7c4.56 4.74 4.92 9.8 7.7 14.38s10.58 6.52 14.74 10.4c2.8 2.36 5.44 5.84 5.4 9.2Zm-3.12 3.42c-0.6 -4.52 -0.56 -5.52 -4 -9.78 -0.26 -0.34 -0.84 -0.14 -0.98 -0.64 -3.24 0.34 0.88 0 3 6.54 1.58 4.92 -0.94 7.2 0.56 8 0.92 0.34 1.26 -3.14 1.42 -4.12Zm-9.48 6.42c1.52 -2.94 2 -3.32 1.24 -8.66s-0.88 -6.54 -6 -13.3c-0.36 -0.46 -1.34 -0.36 -1.12 0.16 0.98 2.34 4.76 5.4 5.52 10.26 0.3 1.8 1.72 7.06 0.24 9.4 -1.78 2.66 -0.24 2.86 0.12 2.14Zm-6 -4a8.54 8.54 0 0 0 -0.54 -3.28c-0.5 -1.08 -0.76 -1.64 -1.14 -1.44s-0.12 1.04 0.42 3c0.22 0.78 0.34 2 0.68 2s0.44 0.08 0.58 -0.38Zm-5.14 -27.4c0.62 -0.34 0.22 -1 -2 -5a23.82 23.82 0 0 0 -8.54 -8.84c-2.56 1.24 3.8 2.12 7.64 9.84 1.92 3.82 2.2 4.26 2.86 3.9Zm-3.26 3.5c0.58 0.42 1.1 -0.42 0.72 -0.8 -1.54 -1.52 -1.64 -1.52 -1.64 -1.5a68 68 0 0 0 -4.82 -6.3c-6.88 -8.62 -11.62 -8.24 -12 -8.44 -1.02 0.84 0.72 0.96 4 2.72 4.5 2.3 10.42 11.98 13.7 14.22ZM252 88c-0.14 -0.44 -0.28 -0.82 -0.76 -0.92 -2 -0.4 -2.6 -2.56 -3.58 -2 -0.72 0.38 2.86 4.54 4.34 2.92Zm-4.9 3.56c1.66 0.22 1.78 -1.04 0.88 -1.26 -7 -1.8 -7.18 -5.6 -11.54 -8.5 -2 -1.4 -4.36 -4.2 -8.96 -4.66a8.26 8.26 0 0 0 -4.38 0.44c-0.38 0.18 -0.82 0.48 -1.8 1.06s0 1.36 0.58 1.08a8.38 8.38 0 0 1 3.08 -1.3 25.16 25.16 0 0 1 4.62 0.52c7.98 3.46 11.62 11.86 17.46 12.6Zm-2.4 -9.72c0.76 0.52 2 -0.3 -3.3 -5.04 -4.38 -4 -8.54 -7.32 -14.16 -5.66 -0.62 0.2 0 1.16 0.56 1.04a9.72 9.72 0 0 0 2.14 -0.32 12.58 12.58 0 0 1 6 2.2c5.62 3.94 7.18 6.74 8.7 7.76Z" fill="#ffa87d" stroke-width="1"></path>
      <path d="M280.4 188c0 2.14 1.32 2 -5.86 1.1 -0.58 0 -0.46 0.78 4.74 -8.62 0.36 -0.72 1.12 7.14 1.12 7.52Z" fill="#c5cdf3" stroke-width="1"></path>
      <path d="M262 124.3a0.46 0.46 0 0 1 0 0.7 45.48 45.48 0 0 1 -4.56 6.22c-3.68 3.54 -3.76 4.64 -7.5 9.12 -6.4 7.66 -9.48 4.14 -8.64 1.4 0 0 1.52 -3.82 2 -5.72 0.26 -0.92 1.76 -3.4 2 -2.72 0.42 1.22 0.34 1.8 1 1.82s0.78 -0.38 0.62 -1.04c-2.66 -10.36 -1.5 -0.42 4.34 -15.62 0.26 -0.68 0.32 -2 -0.36 -1.62 -1.3 0.72 -6.96 13.2 -13.44 10.72 -4 -1.56 -3.1 -2.3 -9.54 -6.22a14.7 14.7 0 0 1 -6.72 -8.58c-2.86 -10.26 -5.86 -10.12 -5.4 -12.1 0.68 -3.36 2.72 -1.6 2.72 -3.16 0 -0.34 -0.88 -0.74 -1.64 -0.4 -1.6 0.72 -1.66 1.52 -2.16 2.24 -1.18 -2.58 -2 -7.3 -1.52 -7.3 0 -3.4 -0.42 -1.4 4.78 -4 1.14 -0.58 1.18 -1.46 1.76 -1.14s2.66 -0.82 4.26 -0.9c5.36 -0.22 12 6.74 12.56 7.16 3.64 2.94 10 5.46 13.58 2.4 0.36 -0.32 1.14 0.5 1.2 -1.5a4.24 4.24 0 0 1 2.68 -3.5c6.2 -1.74 6 10.36 2.34 12.46 -1.58 0.9 -0.8 0 -2.6 0.5 -0.6 0.16 -0.2 1.08 0 1.12 1.42 0.24 1.88 9.04 1.88 9.24 -0.3 5.68 -0.46 5.52 0.26 5.72a4.84 4.84 0 0 0 2.96 -1.02c1.14 -0.58 1.7 4.44 3.14 5.72Zm-4.66 -30.48c0.18 -2.42 -4 -3.26 -4.96 1.58 -0.36 2 0.42 2.88 1.68 3.36s0.28 1.04 0.18 1.74c-0.26 1.66 2.42 0.18 1.7 -1.78s-2.32 -0.86 -2.32 -2.38c0 -2 1.28 -4.1 2.5 -2.72a3.1 3.1 0 0 0 0.38 0.48 0.54 0.54 0 0 0 0.88 -0.28ZM242.7 112.5c0.76 0.3 1.14 -0.26 0.78 -0.86 -1.3 -2.18 -4.46 -1.72 -4 -0.44 0.22 0.54 1.3 0.22 0.82 0.74a9.74 9.74 0 0 1 -4.84 2.66c-2 0.58 -7.14 2.9 -6.16 4.58 0.32 0.58 1.38 -1.14 2.28 0 0.36 0.46 1.12 0.46 1.74 1.5 0.86 1.48 1.86 2.76 3.5 2.72 4.5 0 4.46 -7.58 4.8 -10.74 0.2 -0.94 0.58 -0.38 1.12 -0.16ZM234 96.96c0.14 0 1.76 0 0.76 -1.08a4.16 4.16 0 0 0 -4.56 -0.52c-2 0.64 -4.26 3.84 -6 3.16 -0.64 -0.24 -1.62 1.16 0.9 1.44a3.84 3.84 0 0 0 1.6 -0.52c4.88 -4 5.86 -3.14 7.3 -2.48Zm-4.16 8.36c0.74 1 2.44 0 1.06 -1.76 -0.6 -0.82 -2.08 0.44 -1.04 1.76Zm0.74 7.04c0.12 -0.4 -0.26 -1.14 -0.88 -0.66 -1.5 1.18 -0.76 1.5 -3.36 1.68 -0.32 0 -2.16 -0.54 -1.04 -1.76 2 -2.1 1.68 -3.86 0.68 -5.14a0.52 0.52 0 0 0 -0.9 0.36c0.28 1.4 0.9 2.14 -0.46 3.5 -4.08 4.16 4.52 6.5 5.98 2.02Zm-6.96 -3.2c0.48 -1.32 -1.42 -2.14 -1.72 -1.44 -0.64 1.56 1.4 2.38 1.74 1.44Z" fill="#ffceb6" stroke-width="1"></path>
      <path d="M243.66 199.56c1.76 0.34 12.56 2.74 10.62 2.78 -7.12 0.18 -6.86 1.36 -9.62 3.02 -4.88 2.92 -13.5 25.66 -14.14 24.72 -3.32 -4.92 -6 -5.34 -9.16 -9.56 -2 -2.56 -1.28 -2.46 -8.16 -6.56 -1.14 -0.68 18.68 -9.86 23.54 -12.42 2.92 -1.54 -4.76 -3.62 -1.84 -3.68a61.36 61.36 0 0 1 8.76 1.7Z" fill="#ffccce" stroke-width="1"></path>
      <path d="M243.68 128.28c0.54 0.92 0.4 1 -6.74 5.56 -8.56 5.5 -9.28 4.92 -14 12.28 -6 9.26 -13.42 13.86 -13.42 16.26 0 1.64 -0.14 1.42 -1.38 2.68a56.46 56.46 0 0 1 -8.34 7.62 0.34 0.34 0 0 1 -0.28 0c-8.28 -4.74 -2.62 -6.22 -19.74 3.76 -0.7 0.42 -0.18 -0.32 -2.52 -1.4 -0.64 -0.3 1.8 -6.46 3 -10.68 0.9 -3.22 7.26 -26.36 7.26 -26.36s3.68 -19.54 9.78 -25.84a29.18 29.18 0 0 1 12 -7.64c0.5 0 0.84 0.62 1.36 4.48 -0.78 7.74 -6.22 14 0.5 22.66 2.28 2.94 8.72 6.94 7.58 3.84a11.34 11.34 0 0 1 -0.82 -3.66c3.04 2 3 2.64 8 3.32a17.22 17.22 0 0 0 6.56 -0.16c2.28 -0.56 -1.74 -2 -4 -6 -1.7 -2.88 0.66 1.8 7.04 -0.22 1.76 -0.58 2.82 1.38 6.9 -0.26 0.6 -0.24 1.04 -0.52 1.26 -0.24Z" fill="#c5cdf3" stroke-width="1"></path>
      <path d="M240.22 114c0.5 1.76 -5.26 3.78 -7.1 4.46 -0.3 0.1 -1.06 -0.36 -1.28 -0.46 -0.92 -0.4 5.7 -2.68 6.7 -3.04 0.52 -0.26 0.62 -0.54 1.68 -0.96Z" fill="#ffffff" stroke-width="1"></path>
      <path d="M224.6 120.5c2.18 2 10.16 6.56 9.06 7.18 -1.68 0.92 -5.42 -0.82 -6.96 -2.22 -0.18 -0.16 -0.94 -0.6 -1.28 -0.32 -1.28 1.08 3.1 6.3 3.44 6.76 1.84 2.38 3.18 2 -0.2 2.16 -6.74 0.2 -10.28 -3.48 -14.18 -8.7 -0.8 -1.08 -1.56 0 -1.04 0.66 3.78 5.62 2.28 2 3.64 8.42a10.28 10.28 0 0 1 -4.76 -3.8c-5.16 -6.38 -1.72 -12.92 -0.46 -19.12 0.82 -4 -0.84 -6.66 -1.34 -9.24 -0.8 -4.24 0.48 -3.88 0.22 -4.96 -0.18 -0.7 -0.74 -0.44 -1.74 -1.04 -2.94 -1.72 -2.76 -2.32 -3.1 -5.6 -0.46 -4.2 2.26 -5.86 6.18 -12.36 2.94 -4.9 8.18 -10 10.42 -9.2a43.8 43.8 0 0 0 -3.48 5.42c-0.88 1.66 -0.76 2 -1.7 2 -4 0.24 -2.76 1.72 -2.12 1.54 2.88 -0.82 2 0.14 1.18 2.74 -0.28 0.88 -0.14 0.98 -0.56 1.04 -4 0.5 -8 3.64 -7.26 4.4s0.16 -1.1 7.26 -3.1c0.42 -0.12 0.52 0.9 0.52 1.02a3.24 3.24 0 0 0 0.94 2c1.16 1.64 -6.18 1.58 -7.7 5.34 -0.48 1.16 0 2.9 0.66 2.7 1.16 -0.3 -0.72 -1.58 1.52 -3.22 0.54 1.36 -1.36 4.38 4.8 13.86 4.32 6.72 2.26 10.4 8.04 15.64Zm-1.44 8.66c0.66 -0.86 -1.26 -1.08 -2.86 -3.78 -2.44 -4.16 -2.22 -18.7 -4.3 -14.62 2 6.82 0.34 10.9 3.54 15.86 0.64 1.02 2.9 3.5 3.62 2.54Zm-8.78 -13.48a5.6 5.6 0 0 0 0 -1.42c0 -0.32 -0.26 -0.44 -0.56 -0.46 -0.82 0 -2.12 7.48 -0.48 7.14 0.66 -0.12 0.22 -0.94 1.04 -5.26Z" fill="#ffa87d" stroke-width="1"></path>
      <path d="M228.54 230c1.4 1.76 1.48 1.74 0.9 3.16 -3.78 9.18 -5.16 5.14 -28 10.28a76.64 76.64 0 0 1 -15.58 2.36c-13.56 0.22 -23.72 2.82 -24.92 1.02 -1.56 -2.34 -8.36 -6 -10.62 -7.56 -14 -10.24 -8.74 -8.62 -24 -14.78 -2.66 -1.08 -5.88 -3.78 -8.42 -3.12 -2.18 0.58 -4 2.36 -3.24 4.78 1.04 2.9 2.5 2.46 1.2 3.1 -3.16 1.56 -0.4 4.74 -0.42 4.78s-1.1 1.32 -1.04 2.2a4.78 4.78 0 0 0 1.14 2.32c0.34 0.48 -0.94 1.16 0.92 3.1 0.5 0.52 -0.22 1.18 0.54 2.48 0 0 0.14 0.3 0 0.36s0 0.56 0 0.86 -0.26 1.14 -1.8 4.66c-2.92 6.72 -7.34 8.44 -19.68 27.64 -4.66 7.24 -2.86 4.94 -5.22 7.78 -0.74 0.9 -0.74 1.1 -2 1.04 -8 -0.92 -6.3 -2.1 -11.7 -3.56a13.04 13.04 0 0 1 -4 -1.54c-0.64 -0.46 -3.08 -2.42 -3.2 -2.62a14.8 14.8 0 0 0 -3.4 -3.42c-1.3 -1.26 0.5 0.2 7.88 -9.9 2.22 -3.02 12.62 -19.54 14 -23.38 0.32 -0.98 -0.82 -1.18 -1.2 -0.56 -1.08 1.74 -3.18 6.26 -8.2 14.24 -0.92 1.48 -6 9.7 -5.5 8.14 4.1 -12.28 3.74 -13.22 6.32 -19.06 8.24 -18.84 7.78 -14 12.9 -30 4.64 -14.62 11.3 -17.08 23.22 -17.28a77 77 0 0 1 11.84 1.12c24.92 3.02 31.22 6.92 59.06 16.86 9.16 3.26 15.64 10 20 6.24a10.78 10.78 0 0 0 3.84 -6 1.28 1.28 0 0 1 1.84 -0.86c10.22 6.9 2.88 0.9 10.46 9.26a32.6 32.6 0 0 1 6.08 5.86ZM93.48 260.52c2.46 -9.44 10.3 -25.18 9.06 -32.22 -0.1 -0.64 -1.2 -0.92 -1.32 0.92 -1.02 13.56 -8 19.7 -11.62 42 -0.62 3.78 -0.66 4 0 4.22 1.46 0.72 2.1 -8.04 3.88 -14.92Z" fill="#ff9c9f" stroke-width="1"></path>
      <path d="M219.58 168.52c0.92 0.84 1.02 0.42 0.28 1.9 -3.58 7.14 -2.96 7.16 -4 6.88 -10.14 -2.76 -12.48 -7.44 -13.3 -2.62 0 0.28 -0.98 -0.4 -1.22 -0.56s0.46 -0.8 1.56 -1.72c1.58 -1.34 4 -4 5.08 -4.86 4.5 -4 2.46 -4.54 4.54 -3.82a27.24 27.24 0 0 1 7.06 4.8Z" fill="#ffceb6" stroke-width="1"></path>
      <path d="M303.02 193.34c-0.62 -5.46 -2 -14.56 -3.2 -22.34 -0.76 -4.9 -1.24 -9.34 -1.74 -11.22 -0.18 -0.7 -0.18 -1.12 -0.3 -1.12 -10 0.88 -9.04 -0.9 -14 1.7a38 38 0 0 1 -4.66 2.6c-0.62 0.22 2.66 22.82 2.86 26.32 0 0.94 2.12 -0.38 2.44 1.06 0.4 1.88 -8.92 0 -36.36 -2.6 -11.88 -1.16 -19.4 -3.88 -30.86 -8.54 -0.48 -0.2 -4.98 -1.62 -8.44 -3.08 -1.42 -0.6 -3.34 -2.16 -4.24 -2.18 -0.46 0 -0.84 0.68 -0.4 1.46a6.82 6.82 0 0 0 3.62 3.02c2 0.84 3.24 1.8 4.88 1.6a16.56 16.56 0 0 1 2 -0.18 0.72 0.72 0 0 1 0.48 1.16 0.66 0.66 0 0 1 -0.5 0.22c-8.34 0.66 -3.16 0.34 -12.78 1.86 -7.16 1.16 -10 1.1 -9.42 2.52 0.16 0.36 0.8 0.56 1.88 0.56 4.4 0 18.92 -2.36 20.28 -0.58 0.46 0.64 -0.48 0.98 -4 1.52a121.72 121.72 0 0 0 -16.8 3.56c-0.92 0.24 -0.96 0.56 -0.86 1 0.38 1.48 4.14 -0.76 21.28 -2 0.94 0 0.8 0.86 0.16 1.1 -1.64 0.62 -6.44 0.58 -10.12 1.56a1.06 1.06 0 0 0 0 2c2 0.24 5.4 -0.68 10.9 0a0.86 0.86 0 0 1 0.26 1.62c-3.26 1.22 -10 1.5 -8 2.9 1.42 1.04 6.5 -1 11.56 -0.96 10 0 14.6 -2.2 19.64 -1.06C289.76 208.26 268 204 286.94 208c7.5 1.58 9.84 0.98 11.6 0.32a6.32 6.32 0 0 0 4.44 -6.3 48.76 48.76 0 0 0 0.04 -8.68Zm-84.22 3.4a0.78 0.78 0 0 1 -0.54 -0.2c-1.14 -0.98 -0.38 -1.74 -1.18 -2.92 -1.16 -1.64 0.16 -2.64 -0.42 -4 -0.26 -0.58 -1.06 -1.22 -0.7 -2.42 0.76 -2.66 -1.54 -2.76 0 -5.86l0.12 -0.18c0.3 -0.34 0.82 -0.44 0.9 0s-0.14 1.02 -0.28 1.88 0.32 1.2 0.5 2c0.54 2 -0.46 2.58 0.12 3.28 1.62 1.88 0 2.82 0.82 4.4s0.4 1.7 1.06 2.9c0.48 0.76 0.06 1.12 -0.4 1.12Z" fill="#ffceb6" stroke-width="1"></path>
      <path d="M178.94 297.7c1.76 0.3 3.4 0.4 3.28 0.64 -0.46 0.86 -14.54 26.52 -19.48 35.1 -0.4 0.7 -0.56 1.14 -1.42 1.24a50.54 50.54 0 0 1 -5.5 -0.18c-0.94 -0.14 -0.66 -0.88 -0.5 -1.48 0.62 -2.32 4 -9.72 6.84 -17.06 6 -15.12 6.24 -17.48 7.52 -19.4 0.42 -0.42 8.44 1 9.26 1.14Z" fill="#fff5db" stroke-width="1"></path>
      <path d="M150 241.3c0.4 0.26 10.78 6.4 9.16 6.62s-2.96 0.72 -4.5 0.94c-4.96 0.74 -6.88 0.68 -7.72 0.82 -6.94 0.32 -18.3 4.32 -27.38 -5.18 -2 -2.12 0.58 -2 -1.68 -4 -0.56 -0.48 -0.44 -0.62 -0.12 -1.32 0.6 -1.38 -0.72 -1.28 -1.12 -2.26 -0.9 -2.2 3.06 -1.22 0.4 -4 -0.38 -0.38 -0.98 -1.36 -0.46 -2s0.48 -0.34 3.7 1.46c1.04 0.6 2 0 1.64 -0.82 -0.68 -1.24 -7.7 -5.5 -4.8 -8 1.64 -1.36 3.44 -0.12 4.88 0.54 26 12.08 14 8.16 28 17.2Zm-26.6 -2.36c2.32 -3.68 -1 -5.56 -0.92 -2.7 0 2.18 -1.88 3.16 -1.62 5.86 -0.24 0.8 0.82 3.58 1.26 3.26 0.86 -0.64 0.72 -0.62 0.62 -0.94a6.38 6.38 0 0 1 0.72 -5.48Z" fill="#fff59e" stroke-width="1"></path>
      <path d="M157.16 188.58c-0.22 0 -18 -5.26 -27 0.4 -1.06 0.66 -1.06 0.66 -0.76 1.86a10.58 10.58 0 0 0 0.56 2c0.72 1.54 0 1.26 0.52 2.68a3.04 3.04 0 0 1 0 1.88c-0.14 0.52 -3.84 -1 -7.9 -1.22 -2.92 -0.16 -3.14 0.16 -4 -1.06 -1.04 -1.58 -1.76 -8 -2.56 -10.34 -1.74 -4.88 -3.76 -10 -1.86 -14.94 2.92 -7.5 3.42 -8.5 6.54 -11.06 7.32 -6 15.54 -1.34 21.18 0.24a21 21 0 0 1 7.4 4.66c8 6.96 5.66 4.64 4.48 5 0 0 -4.6 -0.12 -5.66 -0.22 -2.3 -0.24 -12.94 0.22 -10 1.76 2 1.12 2.92 0.52 5.7 2.24 1.6 0.98 2.58 0.54 6 2.74a34.78 34.78 0 0 1 4.2 3.2c2.12 2.4 0.5 0 -7.48 1.12a37.54 37.54 0 0 0 -11.72 3.2c-0.9 0.44 -0.34 1.4 0.5 1.32a59.26 59.26 0 0 1 6.26 -0.42c9.52 0.24 15.28 4.48 15.6 4.96Z" fill="#ff9c9f" stroke-width="1"></path>
      <path d="M87.36 288.32c0.32 0 0.58 0.48 0.44 0.78s-1.74 3.16 -2.48 4.24c-3.72 5.46 -3.56 7 -5.16 6.9a31.56 31.56 0 0 1 -7.46 -1.44 29.78 29.78 0 0 1 -8.48 -4c-1.28 -1.06 -0.36 -1.52 0.9 -5.42 0 0 2.98 -8.28 3.28 -8.76 0.74 -1.12 -1.3 0.6 9.64 4.5 3.2 1.24 7.04 3.24 9.32 3.2Z" fill="#ffceb6" stroke-width="1"></path>
      <path d="M81.68 302c1.06 0.52 -0.44 1.04 -1.18 3.9 -0.14 0.6 -0.26 1.14 -1.38 1a2 2 0 0 1 -0.94 -0.38c-0.4 -0.3 0.2 -0.18 1.12 -2.92 0.28 -0.78 -0.34 -1.34 -0.84 -0.8a26 26 0 0 1 -1.68 3.34c-0.52 0.5 -2 0 -4 -0.6 -0.92 -0.3 -0.56 -0.32 0.4 -2.98 0 -0.2 0.12 -1.1 -0.4 -1.04 -0.9 0.12 -1.14 2.72 -1.82 3.1 -0.18 0 -0.76 -0.24 -1.08 -0.28s-0.28 -0.6 -0.2 -0.84c1.84 -4.2 0.48 -4 2.42 -3.4 2.96 0.86 3.36 0.86 3.12 1.38a24.48 24.48 0 0 0 -0.82 3.22c-0.14 0.78 0.76 0.86 1.08 0 1.14 -3.06 0.78 -3.1 1.16 -3.34s0.74 -0.14 1.08 0c1.78 0.48 2.86 0.02 3.96 0.64Z" fill="#fff59e" stroke-width="1"></path>
      <path d="M75.78 307.8c1.08 0.18 2.66 -1.06 -2.72 8.22 -2.64 4.56 -1.44 4.78 -3.16 9.4 -3 8 5.7 19.56 -19.74 15.26a10.8 10.8 0 0 0 -4.7 0c-9.6 1 -11.34 4.78 -16.24 3.56 -2.92 -0.72 -1.64 0.46 -5.88 -0.94 -0.6 -0.2 -0.62 -0.34 -0.48 -1 0 -0.26 0 -0.58 0.24 -0.76 0.56 -0.58 -0.18 -1.34 -1.04 -1.06s-0.8 1.22 -0.84 1.38c-0.18 0.58 -0.6 0.26 -2.42 -0.22a6 6 0 0 1 -2.34 -1.64c-1.28 -1.48 -5.6 -0.44 -4.56 -6 0.18 -1.02 2.2 -0.98 2.72 -0.9 3.4 0.56 10 -1.3 11.16 -1.36 7.66 -0.42 14.38 -8 19.02 -9.18 4.12 -1.08 4.52 -3.8 5.4 -4 0 0 3.12 -3.32 3.54 -3.8 1.48 -1.7 0.52 -1.7 3.1 -5.8 0.78 -1.24 0.6 -1.24 2.98 -7.28 0.2 -0.5 0.32 0.16 4.54 2.22 1.82 0.88 4 0.88 7.58 2.62a12.34 12.34 0 0 0 3.84 1.28Z" fill="#fff59e" stroke-width="1"></path>
      <path d="M68.28 298.94c0.2 -0.46 1.26 0.16 1.2 0.74a14.58 14.58 0 0 1 -1.24 3.62c-0.12 0.36 -0.5 0.18 -0.5 0.18a10 10 0 0 1 -3.06 -0.84c-1.1 -0.6 -0.22 -1.34 0.2 -2.72 0.3 -0.98 0 -1.12 -0.34 -1.22 -0.88 -0.22 -1.08 3.3 -1.84 2.82s-0.98 -0.62 -0.56 -1.34c1.7 -3 -0.48 -4.84 3.82 -2.46 1.28 0.72 1.24 0.52 0.42 3.14 -0.32 1.06 0.8 1.28 1.1 0.46s0.52 -1.8 0.8 -2.38Z" fill="#fff59e" stroke-width="1"></path>
      <path d="M62.16 294.78a8.44 8.44 0 0 1 -0.8 3.86c-0.16 0.44 -0.6 0.96 -0.8 1.46s-0.66 -0.52 -0.96 -0.76 0.26 -0.46 0.42 -2.66a2.76 2.76 0 0 1 0.96 -2.18c0.46 -0.32 1.02 -0.32 1.18 0.28Z" fill="#fff59e" stroke-width="1"></path>
      <path d="M236.8 122.18c-0.56 -0.2 -0.8 -1.64 0.6 -3.18 4.84 -5.38 1.54 3.94 -0.6 3.18Z" fill="#ff9c9f" stroke-width="1"></path>
      <path d="M387.58 252.9c-2 -3.64 -10 -2.7 -15.24 2.3a13.14 13.14 0 0 0 -3.86 4.64 7.2 7.2 0 0 1 -0.34 -3.54c0.78 -5.82 6 -8.82 8.38 -17.48s-1.48 -16.24 -4.3 -18.24c-0.74 -0.52 -4.14 -2.38 -5.06 -2 -4.12 -0.4 -11.48 3.56 -14 9.3 -6.1 14 -0.3 15.2 -6 11.8 -6.58 -4 0.42 -11.66 4.5 -27.44a27.24 27.24 0 0 0 0.22 -5.32 12.12 12.12 0 0 0 -10.92 -12c-1.58 -0.26 -3.36 -0.16 -7.88 2a14.44 14.44 0 0 0 -6.64 6.64 27.3 27.3 0 0 0 -2.26 12.44 44.62 44.62 0 0 0 1.68 8.62c0.24 0.9 -1.08 0.36 -2.58 0.9a11.44 11.44 0 0 0 -7.04 7.5c-1.74 4.36 -0.68 4.28 -2 8.84a18.64 18.64 0 0 0 -0.22 6.98c1.46 7.3 8.76 5.84 6.44 11.14 -0.52 1.2 -3.62 -6.78 -12.42 -4.4 -1.52 0.4 -2.18 1.04 -4.66 4 -4.38 5.3 -1.86 14.88 1.78 18.52 7.88 7.82 8.56 6.72 6.56 8.42 -1.2 1.02 -1.8 1.54 -1.86 2.8a30.56 30.56 0 0 0 0 4c0.5 10.82 1.06 9.32 2.42 10.66 0.24 0.24 0.22 -0.52 1.3 10.3 0.78 8 4.5 26.32 3.76 27.6s-1.22 -0.66 -0.66 8.22c0.18 2.76 0.38 5.76 2.76 6.56a65.12 65.12 0 0 0 17.7 2.56 122 122 0 0 0 19.72 -1.2 11.2 11.2 0 0 0 4.54 -1.54c1.68 -1.16 2.98 -13.18 0.88 -14.26 -1.24 -0.66 3.72 -30 3.62 -36.92a0.44 0.44 0 0 1 0.28 -0.32c3.3 -1.32 2.4 -9.04 3.02 -11.76 1.02 -4.4 -0.8 -7 -5.04 -8.78 10.28 -2.6 7.64 -5 12.62 -6.6 13.36 -4 15.82 -16.04 10.8 -24.94Zm-34.7 -19.44c1.82 -4.58 2.44 -7.74 6.9 -10.46 2.38 -1.46 5.5 -3.34 8 -2.5 3.12 1.04 6 2.8 7.3 9.26 2.66 14.16 -9.56 18 -8.68 29.24 0.32 4.24 2.42 5.42 -1.44 11.14 -3.14 4.66 -12.86 7.76 -10 19.88 0.44 1.82 0.9 2 0 2l-3.3 0c-0.7 -0.12 -1.34 0.4 -1.6 -0.28 -0.52 -1.34 -3.68 -6.46 -3.5 -10 0 -1.14 0.44 -2.44 4.34 -5.82a9.7 9.7 0 0 0 2.68 -8c-0.26 -2.8 -1.06 -3.2 -0.64 -6 0.76 -4.98 3.8 -4.76 0.62 -15.68a22.44 22.44 0 0 0 -2 -3.82 19.64 19.64 0 0 1 1.32 -8.96ZM326 213.58a19.64 19.64 0 0 1 2.72 -10c4.88 -8 15.86 -9.2 19.82 -1.8 7.44 13.46 -14.18 32.38 -1.88 40 2.32 1.42 3.88 1.86 4.78 4 4.56 11.12 -0.68 11.52 -0.34 18 0.14 2.56 3.02 7.24 -2.4 11.74 -3.74 3.32 -3.8 5.64 -3.44 8.44 0.22 1.66 0.68 2.32 2.68 7.26 0.72 1.8 0.72 0.76 -4.22 1.26 -0.34 0 -1.08 -2.6 -1.02 -3.88 0.2 -4.4 -2.94 -6.6 -2.92 -8.92 0 -5.78 8 -6.46 4.44 -16.56 -0.78 -2.2 0.44 -2.9 1.24 -6.7 0.64 -2.96 -1.26 -9.8 -4 -12a33.78 33.78 0 0 1 -3.6 -4.54c-0.82 -1.06 -0.42 -1.5 -0.82 -3.18 -1.72 -7.34 4.2 -17.14 2.44 -26a3.3 3.3 0 0 0 -0.66 -1.82c-0.32 -0.42 -1.44 -0.46 -1.18 0.68 2.5 10.28 -3.4 14.7 -2.36 27 0.86 10.3 11.66 8.62 7.22 23 -1.32 4.3 2.64 7.32 0 11.14 -3.16 4.5 -6 7.74 -3.54 12.12 3.32 5.68 1.64 5.34 2.44 8.34 0.32 1.26 0.9 1.42 -0.5 1.48 -2.9 0.1 -2.68 0.44 -2.76 -0.54 -0.76 -8.36 -2.28 -6.38 -5.36 -10.76 -1.72 -2.44 0.74 -4.5 2.84 -6.9 8 -9.08 6 -18.44 0.4 -22.46 -1.26 -0.9 -1.68 -0.54 -4.14 -1.76 -3.04 -1.52 4.2 -7.66 1.74 -16.78 -0.4 -1.54 -1.14 -5.74 -5.12 -7.5 -0.48 -0.2 -0.66 -0.6 -0.84 -1.36 -1.06 -4.58 -1.86 -5.4 -1.66 -11Zm-4 47.72a5.48 5.48 0 0 0 0.3 -5.02 17.04 17.04 0 0 0 -3.76 -3.38c-2.3 -1.8 -3.76 -4.4 -2.72 -9.74 0.88 -4.5 0.86 -8.78 3.38 -12.66 3.34 -5.18 12.16 -6 12.96 6.4 0 8.7 -7.84 13.86 1.48 16 3.34 0.78 6 6.52 5.38 9.48 -2 9.84 -3.2 8 -7.74 14 -4 5.32 3.88 8.14 4.64 12.48 0.88 4.96 0.32 4.18 -4.3 3.76 -0.64 0 -0.46 -1 -1.04 -3.88a11.2 11.2 0 0 0 -2.44 -5.72c-1.42 -1.46 -3.66 -1.6 -3.76 -5.42 -0.26 -9.34 5.14 -2.24 7.76 -14.64a7.68 7.68 0 0 0 -0.32 -5.74 6.16 6.16 0 0 0 -2.72 -2.12c-4.24 -2 -5.18 -2 -5.62 -4.92 -0.6 -3.72 1.88 -5.86 1.86 -10.36 0 -2.46 -1.48 -1.88 -1.46 -0.84 0.12 4.78 -2.98 7 -1.62 12.74 1.1 4.72 10 3.2 8.78 9.52 -2.18 10.88 -6.44 8 -7.52 12a10.12 10.12 0 0 0 1.06 8.78c0.82 1.1 2.58 1.12 3.58 3.58 0.42 1.04 2.24 6.92 1.14 6.74 -0.62 0 -4.84 0.38 -5.56 -0.72 -2.4 -3.66 -1.04 -4.76 -2.32 -6.82 -2 -3.38 -8.56 -7.26 -6.68 -12.76a11.7 11.7 0 0 1 3.26 -6.92c1.54 -1.28 3.12 -1.74 4 -3.82Zm-17.28 13.3c-5.28 -11.36 2.24 -17.68 6 -17.54a8 8 0 0 1 4.22 1.26 8.2 8.2 0 0 1 3.8 3.44c0.26 0.32 0 0.34 -1.32 1.4a14.3 14.3 0 0 0 -4 5.5c0 -0.12 -1.18 -6.46 -2.44 -5.88 -0.24 0.12 -0.58 0.16 -0.62 0.58a2.3 2.3 0 0 0 0 1.16c1.08 2.24 0.76 4.74 2.14 6.92 0.46 0.72 -0.44 2.82 0.28 4.98 1.68 5.08 4 5.54 6.22 8.44 1.78 2.26 0.58 3.32 2.3 6.82 0.28 0.56 -0.3 0.28 -2.96 0.16 -0.94 0 -0.7 -0.44 -1.88 -3.54 -2.02 -6.04 -10.08 -10.3 -11.66 -13.7Zm8.84 12.7c0.88 -0.56 2 2.74 2.34 3.78 0.18 0.58 -0.58 0.3 -2.66 -0.24 -0.7 -0.18 -1.8 -0.54 -1.72 -1.48s1.34 -1.54 2.12 -2.06Zm48.84 58.2c0 0.42 -0.72 7.52 -0.94 8.7 -0.28 1.58 -1.14 1.66 -3.88 2.32a94.68 94.68 0 0 1 -18.22 1.38c-9.32 0 -18.72 -1.18 -20.44 -3.12 -0.8 -0.92 -1.14 -7.24 -1.18 -7.74 0 -2.88 -0.54 -0.74 5.18 -0.16a89.88 89.88 0 0 0 17.48 1 160.26 160.26 0 0 0 19.5 -1.48c1.88 -0.28 2.54 -1.76 2.58 -0.9Zm-2.64 -1.8c-0.2 1.36 -0.46 1.26 -1.02 1.32 -19.32 2.2 -34.5 0.9 -38 -0.34 -0.9 -0.32 -0.82 -1.36 -1.04 -2.54 -1.24 -6.96 -5.6 -31.1 -5.6 -36.84 0 -0.68 1.04 0.6 11.58 1.16a313.2 313.2 0 0 0 38.4 -0.84c1.42 -0.2 -4.08 36.78 -4.24 38.08Zm8.24 -52c0 1.3 -1 11.44 -1.9 11.66 -5.2 1.22 -16 1.28 -23.24 1.54a179.2 179.2 0 0 1 -24.52 -0.76c-6.34 -0.64 -6.46 -1 -6.96 -11.88 0 -0.88 0.24 0 3.14 0.62a121.4 121.4 0 0 0 25.34 1.48c3.18 -0.68 15.26 0.12 25.46 -1.58 1.9 -0.28 2.68 -1.72 2.68 -1.06Zm-2.36 -0.88c-0.66 0.2 -4.66 1.22 -4.64 0.24a10 10 0 0 1 0.38 -4.78c0.5 -0.92 0.86 -0.64 1.46 -0.48 2.86 0.72 6.66 3.86 2.88 5.04Zm19.62 -20.36c-4.48 6 -9.7 4.98 -12.44 8a12.16 12.16 0 0 1 -5.22 3.46 26.74 26.74 0 0 0 -5.82 1.84c-4 2.24 -1.6 8 -3.08 8s-1.46 -0.12 -1.78 -1.3c-2.54 -9.18 1.8 -11.68 6.4 -16 7.78 -7.44 5.02 -10.76 5.66 -12 4.94 -9.84 15.42 -12 17.3 -8.6a14.74 14.74 0 0 1 -0.94 16.62Z" fill="#000001" stroke-width="1"></path>
      <path d="M381.32 257.16c-1.6 0.8 -1.16 3.56 -3 5.9 -1.02 1.26 -3.6 2.54 -5.54 4.42 -2.92 2.86 -2 3.54 -4 5.82 -2.44 2.62 -4.68 2.18 -6.76 5.64 -1.74 2.88 0 3.58 0.78 1.54 1.56 -3.66 4.56 -3.24 7.26 -6.24 2 -2.22 1.7 -3.52 4 -5.62 3.14 -2.92 5.02 -3.06 6.24 -5.64 1.44 -3.1 0.96 -3.82 2 -4.94 0.14 -0.42 -0.1 -1.32 -0.98 -0.88Z" fill="#000001" stroke-width="1"></path>
      <path d="M356.66 265.58a0.56 0.56 0 0 0 0.7 -0.24c4.88 -8 0.88 -10.38 1.88 -15.4 1.56 -8 3.08 -3.6 4.32 -15.14 0.38 -3.46 0.42 -4.16 0.88 -4.94 3 -5.14 -0.66 -5.38 -2 0.52 -0.5 2.12 -0.72 6.26 -1.12 8.26 -1 5.08 -3.18 6.22 -3.72 10.76s0.64 6.22 0.6 8c-0.2 4.92 -3.04 7.52 -1.54 8.18Z" fill="#000001" stroke-width="1"></path>
      <path d="M264.76 288a63.42 63.42 0 0 0 10.78 -1c5.72 -1.24 6.82 -6.72 15.12 -22.16 16.82 -31.34 24.72 -42.9 26.66 -48.7a9.28 9.28 0 0 0 -1.42 -8 12.46 12.46 0 0 0 -6.3 -4.76c-0.8 -0.32 16.76 -39.42 17 -41.78 2 -3.66 4.62 -14.46 5.14 -19.3a19.08 19.08 0 0 0 -0.24 -6.16c-0.6 -1.02 3.9 -3.72 4.62 -11.54 0.4 -4.38 0 -1.1 -0.14 -5.3a16.88 16.88 0 0 0 -1.42 -7.22c-2.7 -6 -0.94 -2.84 -7.8 -11.1 -2 -2.36 -3.58 -2.58 -4.54 -3.6 -2.62 -2.8 -4 -0.8 -4 -5.84 -0.3 -8.2 -4.22 -11.72 -4.44 -14.92a25.82 25.82 0 0 0 -8.74 -16.56c-0.92 -0.68 0.32 -0.72 -0.46 -1.4a36.1 36.1 0 0 0 -9.76 -4.8c-9.3 -3.62 -5.68 -2.18 -6 -6.8 0 -1.12 0.94 -1.46 0.74 -2.12 0 -0.12 -0.22 -0.24 -0.92 -0.24 -0.22 0 0 -0.28 0.22 -0.56s0.84 -0.84 0.68 -1.7 -2.2 0.6 -5.48 -3.7c-2.3 -3.02 -2.38 -3.06 -2.4 -3.34a17.44 17.44 0 0 0 -3.14 -10.5c-0.52 -0.8 -1.2 -0.34 -1.6 0.2 -0.9 1.2 -1.84 2.3 -2.46 3.12 -2.38 3.2 -2.54 3.66 -2.66 4.56 0 0.2 -0.14 0.52 -0.7 0.6a13.04 13.04 0 0 0 -4.76 1.84c-1.06 0.76 -2.12 0 -4.68 -0.5a10.64 10.64 0 0 0 -5.08 0.42c-2.18 0.5 -0.48 1.16 3.12 8.4 0.44 0.88 0.58 0.8 0.58 0.82a9.34 9.34 0 0 0 -0.26 3.06c0 2.6 0.32 3.8 -0.82 6 -0.12 0.28 0 0.42 0.14 0.64 0.66 0.94 1.34 0 1.4 1.02s0.8 0.82 1.36 0.6 0.34 0.32 1.78 1.48 2 1.2 2 1.6a12.66 12.66 0 0 0 0.28 8c0.4 0.92 1.24 2.52 0.64 3.32 -2 2.74 -2.9 3.38 -3.28 4 -2.84 5.08 -0.7 7.1 -0.94 8.8 -1.2 -0.78 -2.94 -5.56 -3.42 -7.06a20.98 20.98 0 0 0 -34.68 -8.98c-1.44 1.32 -5.74 -2 -13.34 10.22 -4.48 7.22 -7.2 9.18 -6.74 13.56 0.82 8 5.02 5.62 4.46 7.88s1 3.7 -0.26 4c-6 1.76 -14.92 8.7 -17.38 16.68 0 0 -4.14 12.4 -4.46 14.64 -0.94 6.18 -10.24 36.62 -10.76 39.24 -0.46 2 0.14 0.86 -6 -1.4a68 68 0 0 0 -11.6 -2.5c-1.48 0 -9.02 -10 -16.94 -12.14 -4 -1.06 -5.74 -2.5 -9.84 -2.82 -8.46 -0.64 -15.02 4 -17.04 9.68 -1.68 4.64 -4 7.14 -2.64 13.86a70.32 70.32 0 0 0 2.64 8.42c0.88 2.76 0.96 6.2 1.4 7.62 0.56 1.8 2.32 2 -2 1.62a26.8 26.8 0 0 0 -9.28 1.42c-2.44 0.44 -5.88 3.32 -7.76 4.98 -5.64 5.02 -6 15.72 -14.84 32.64 -10.3 19.86 -8.9 32.14 -17.22 38.42 -2.34 1.76 -0.38 3.36 2.14 5.54 0.36 0.3 0.58 -0.22 -1.78 6.4 -2.78 7.76 -2.62 7.62 -3.48 7.9 -3.66 1.18 -2.58 4 -3.42 5.62s0.74 1.8 0.32 2.56c-1.28 2.26 -2.3 6.14 -3.08 7.24 -1.86 2.54 -1.56 3.8 -3.08 5.52 -4.78 5.44 -5.66 6.54 -6.76 6.88 -7.04 2.14 -12.5 8.76 -18.7 9.44a54.98 54.98 0 0 0 -7.7 1.28c-3.7 0.76 -9.52 -1.56 -9.3 4.6 0.18 4.76 4.52 4.14 6 6a8.84 8.84 0 0 0 4.9 2.16c1.1 0.2 0.22 1.18 4.76 2 9.66 1.62 5.88 -0.7 20 -3.4a14.32 14.32 0 0 1 5.64 0.18c4.8 0.46 1.8 -0.18 8.44 0.48a8.48 8.48 0 0 0 4 -0.3c1.8 -0.78 7.14 0.52 7.1 -11.54 0 -5.64 1.12 -6.22 1.52 -8.68 0.84 -5.22 3.28 -7.12 4.34 -9.86 1.8 -4.58 1.64 -4.6 2.34 -4.52 3.12 0.36 2.22 -2.48 4 -4.86 1.38 -1.88 -0.58 -2.44 0 -3.26 29.38 -45.68 28.84 -40.78 28.86 -40.72a65.48 65.48 0 0 0 4.8 6.9c0.32 0.5 -30.6 84.62 -32 86 0.18 1.6 -2 2.58 -0.28 4.66a24 24 0 0 0 4.14 0.4 6 6 0 0 0 5.42 -1c1 -1.2 34.2 -61.2 36.88 -65.84 3.74 0.58 32.86 5.28 36.2 5.7 1.28 0.16 -13.42 36.56 -13.74 37.4a2 2 0 0 0 -0.14 1.46c0 0.34 0.22 0.98 2 1.22a36.16 36.16 0 0 0 5.88 0.24 2.6 2.6 0 0 0 2.22 -1.08c0.62 -0.76 15.88 -28 15.9 -28.12 5.7 -10 4.36 -9.1 6.22 -8.7 0 0 12.18 2 12.34 2s0.5 0.26 0.8 0.3c1.72 0.14 0.6 44.8 2.76 72 0.24 3 9.4 3.82 9.86 0.2 1.58 -12.7 3.86 -52.92 5.78 -65.22 0.68 -4.4 0 -5.18 1.3 -5.12 0.58 0 1.64 0.12 3.34 0.36 14.4 2 16.66 1.54 28 2.66 1.68 0.18 26.72 48 29.2 50.48 1.14 1.14 6.68 0.3 7.12 0.34 8.78 0.8 -7.6 -16.72 -22.56 -67.82 -0.22 -0.94 0.34 -0.94 1.38 -0.94Zm65.46 -149.36c-0.62 14.54 -5.22 23.34 -20.9 60.36 -1.72 4 -1.26 3.88 -2.44 3.66 -2.32 -0.46 -2.4 -0.1 -2.26 -1.56a46.24 46.24 0 0 0 -0.18 -9.84c-5.72 -37.24 -4.78 -27.5 -2.82 -31.4 0.82 -1.62 0.4 -1.82 -0.9 -6.14 -0.96 -3.12 12.86 -27.02 6.54 -39.1 -1.8 -3.42 -3.6 -2.5 -2.48 -1.08 7.38 9.36 -2.42 27.68 -5 36.8 -4.94 -10.96 -1.9 -21.7 -8.64 -25.76 -9.74 -5.84 -8.16 -5.5 -22.94 -3.8 -4.4 0.5 -2.46 -0.2 -5.08 -0.12 -1.58 0 -1.02 1.08 -2.54 -2.92 -0.2 -0.58 0.9 -1.06 2.56 -3.9 0.16 -0.26 0.2 0 0.2 0 0 2.94 -2.44 6.78 0.42 6 8.64 -2.22 8.52 -11.66 7.62 -2.34 -0.14 1.32 0.76 0.8 1.28 0.64a15.82 15.82 0 0 0 8.82 -18.9c0 -0.32 0 -0.48 0.28 -0.42 0.74 0.14 5.14 0.42 5.18 0.44 2.52 0.48 0.6 8.6 9.22 7.38 2 -0.3 2.62 -2 3.48 -3.72s-0.22 -2.36 5.64 -0.34c12.94 4.44 10.9 9.8 14.58 12.96 1.8 1.54 1.54 3.62 1.54 5.44 0 10.32 -12.24 10.3 -12.3 16.78a7.36 7.36 0 0 0 0.68 4.48 7.58 7.58 0 0 0 5.78 2.94c2.16 0.22 4.22 -0.62 10 -4 4.24 -2.14 4.78 -5.18 4.66 -2.46ZM302.98 202a6.32 6.32 0 0 1 -4.44 6.3c-1.76 0.66 -4.12 1.4 -11.6 -0.32 -18.94 -3.56 2.82 0.36 -48.5 -11.06 -5.1 -1.14 -9.58 1.16 -19.64 1.06 -5.06 0 -10.14 2 -11.56 0.96 -2 -1.4 4.82 -1.68 8 -2.9a0.86 0.86 0 0 0 -0.26 -1.62c-5.52 -0.62 -8.9 0.3 -10.9 0a1.06 1.06 0 0 1 0 -2c3.68 -0.98 8.48 -0.94 10.12 -1.56 0.64 -0.24 0.78 -1.18 -0.16 -1.1 -17.14 1.24 -20.9 3.48 -21.28 2 0 -0.44 0 -0.76 0.86 -1a121.02 121.02 0 0 1 16.8 -3.56c3.52 -0.54 4.46 -0.88 4 -1.52 -0.94 -1.22 -9.16 -0.42 -10.66 -0.26 -2.5 0.3 -7.14 0.84 -9.62 0.84 -1.08 0 -1.72 -0.2 -1.88 -0.56 -0.78 -1.74 3.68 -1.26 16.46 -3.74a54.26 54.26 0 0 1 5.74 -0.64 0.7 0.7 0 0 0 0 -1.38 16.56 16.56 0 0 0 -2 0.18c-1.64 0.2 -2.82 -0.76 -4.88 -1.6a6.82 6.82 0 0 1 -3.62 -3.02c-0.44 -0.78 0 -1.48 0.4 -1.46 0.9 0 2.82 1.58 4.24 2.18 3.46 1.46 8 2.88 8.44 3.08 11.46 4.66 18.98 7.38 30.86 8.54 27.44 2.64 36.76 4.48 36.36 2.6 -0.32 -1.44 -2.38 -0.12 -2.44 -1.06 -0.2 -3.5 -3.48 -26 -2.86 -26.32a38 38 0 0 0 4.66 -2.6c4.96 -2.6 4 -0.82 14 -1.7 0.12 0 0.12 0.42 0.3 1.12 0.5 1.88 0.98 6.32 1.74 11.22 1.22 7.78 2.58 16.88 3.2 22.34a48.76 48.76 0 0 1 0.12 8.56Zm-149.28 -6.86a90.98 90.98 0 0 0 -13.36 -0.92 28.96 28.96 0 0 0 -7.56 0.98c-0.94 0.38 -1.08 0.32 -1.18 0a2 2 0 0 1 -0.22 -1c0 -0.34 0.12 -0.4 0.46 -0.48a52.76 52.76 0 0 1 7.38 -0.98c8.94 -0.38 11.04 0.28 13.08 0.66 1.58 0.3 2 0.74 2.44 0 0.68 -1.18 -6.6 -2.14 -13.8 -2a55.14 55.14 0 0 0 -8.88 1.02c-0.44 0 -0.84 0.44 -1.06 -0.38 0 -0.34 -0.12 -0.48 0 -0.6a1.54 1.54 0 0 1 0.58 -0.2 47.88 47.88 0 0 1 13.84 -1.16 64.7 64.7 0 0 1 13.84 2.4c0.64 0.2 0.9 0.36 0.96 0.52s-0.22 1 -0.22 1a2 2 0 0 1 -0.68 -0.18c-3.68 -1.26 -2.8 0.54 -2.34 0.68 1.36 0.4 0.8 0.18 2.6 0.74a8.7 8.7 0 0 1 -2.46 3.18c-1.24 0.84 -1.52 0.68 -3.68 0.2a49.84 49.84 0 0 0 -20 -0.6c-0.72 0.18 -0.98 0.28 -1.32 -0.38s-0.44 -1.02 0.54 -1.36c2 -0.66 7.18 -1.72 19.22 -0.36 2.98 0.34 4.72 1.28 4.86 0 -0.1 -0.24 -1.44 -0.52 -3.04 -0.78Zm5.52 -4.9c0.42 0 0.9 1.08 0.9 1.46 -0.8 0 -13.2 -5.06 -26.78 -1.62a15.18 15.18 0 0 0 -2.42 0.64c-0.26 0.16 -0.32 0 -0.36 0a1.18 1.18 0 0 1 -0.14 -0.74c0.46 -1.1 7.02 -2.24 8.54 -2.34a62.92 62.92 0 0 1 20.26 2.6Zm-17.86 -7.74c-1.04 0 -2.54 0.12 -2.42 0 0.34 -0.52 2.68 -0.96 3.22 -1.08a38.3 38.3 0 0 1 12.2 -0.62c0.8 0.16 1.58 -0.18 2 1.2 4 11.62 2.08 0.82 -15 0.5Zm-0.28 16a57.42 57.42 0 0 1 14.3 1.84c0.32 0 17.46 8.14 14.3 7.12 -12.14 -4 -11.88 -5.32 -24.22 -7.52 -5.46 -0.98 -9.86 -1.36 -4.38 -1.44Zm18.4 2.16c-1.8 -0.82 -2 -0.84 -1.24 -1.6a8.88 8.88 0 0 0 3.1 -7.48c-0.24 -0.92 0.24 -0.4 7.04 3.04 38.34 19.32 39.56 19.76 40.3 20.62 0.32 0.38 -0.78 3.06 -2.64 4.68a4.38 4.38 0 0 1 -5.64 0.88c-2 -0.82 -5.34 -3.1 -14.48 -7.36 -4.24 -2 -6.6 -3.36 -13.5 -6.6 -13.24 -6.2 -12.98 -6.18 -12.94 -6.18Zm45.72 10.82c-8 -4.32 -43.16 -21.22 -43.38 -22 0 -0.22 1.14 -0.68 4.34 -2.5 6.42 -3.66 13.38 -9.22 22.64 -14.2 5.68 -3.06 3.38 -3.4 8.3 0a62 62 0 0 0 6.18 4c3.12 3.32 6.3 3.38 5.14 3.64 -12 2.76 -18.52 1.78 -17.42 5.5 0.74 2.52 6.26 0.98 14.94 0.36 1.64 -0.1 1.6 0.12 0.88 0.26a133.88 133.88 0 0 0 -13.22 3.02c-2 0.62 -2 1.34 -2 2.2a1.64 1.64 0 0 0 1.5 1.54 67.66 67.66 0 0 0 8.96 -1.16s0.18 0.12 0 0.4c-0.68 2.16 0.48 3.24 2.24 3.12a43.28 43.28 0 0 1 7.36 -0.36c-0.72 0.34 -3.22 0.72 -5 1.32a1.78 1.78 0 0 0 -0.3 3.36c2.36 1.54 4.82 0.34 8.32 -0.16 7.08 -1 0.82 0.34 14.54 -1.26 2.2 -0.24 2.78 -0.38 3.12 -0.14 3.36 2.42 3.1 2.24 2.7 2.44 0 0 -0.28 0.22 -16.66 8.24 -11.76 5.82 -5.98 6.22 -13.18 2.38ZM216 100.66c0.74 -3.36 2.72 -1.6 2.72 -3.16 0 -0.34 -0.88 -0.74 -1.64 -0.4 -1.6 0.72 -1.66 1.52 -2.16 2.24 -1.18 -2.58 -2 -7.3 -1.52 -7.3 0 -3.4 -0.42 -1.4 4.78 -4 1.16 -0.58 1.18 -1.46 1.76 -1.14s2.66 -0.82 4.26 -0.9c5.36 -0.22 12 6.74 12.56 7.16 3.64 2.94 10 5.46 13.58 2.4 0.36 -0.32 1.14 0.5 1.2 -1.5a4.24 4.24 0 0 1 2.68 -3.5c6.2 -1.74 6 10.36 2.34 12.46 -1.58 0.9 -0.8 0 -2.6 0.5 -0.6 0.16 -0.2 1.08 0 1.12 1.42 0.24 1.88 9.04 1.88 9.24 -0.3 5.68 -0.46 5.52 0.26 5.72a4.84 4.84 0 0 0 2.96 -1.02c1 -0.68 1.56 4.44 3.06 5.7a0.46 0.46 0 0 1 0 0.7 45.48 45.48 0 0 1 -4.56 6.22c-3.68 3.54 -3.76 4.64 -7.5 9.12 -6.4 7.66 -9.48 4.14 -8.64 1.4 0 0 1.52 -3.82 2 -5.72 0.26 -0.92 1.76 -3.4 2 -2.72 0.42 1.22 0.34 1.8 1 1.82s0.78 -0.38 0.62 -1.04c-2.66 -10.36 -1.5 -0.42 4.34 -15.62 0.26 -0.68 0.32 -2 -0.36 -1.62 -1.3 0.72 -6.96 13.2 -13.44 10.72 -4 -1.56 -3.1 -2.3 -9.54 -6.22a14.7 14.7 0 0 1 -6.72 -8.58c-2.88 -10.3 -5.84 -10.04 -5.32 -12.08Zm29.02 30.64c0.28 0.68 -1.76 1.12 -2.74 4.3a49.78 49.78 0 0 1 -2 5.78c-1.42 3.78 3.26 10.2 12.96 -2.56a44 44 0 0 1 4.4 -5.54c3.76 -3.42 4.2 -6 6.5 -8.42 0.68 -0.72 0.56 -1.8 -0.28 -1.62s-0.54 0.44 -1.32 -0.78c-0.26 -0.42 1.82 -0.3 2.32 -0.2a89.14 89.14 0 0 0 11.68 -0.76c8 -0.66 7.22 1.1 10.94 2.72 4.28 1.86 5.58 3.52 6.62 7.4 0.76 2.82 0.82 6.7 2.3 12.82 0.8 3.28 2.22 7.28 3.7 12 0.32 1.02 0.74 1.1 -0.48 0.86a54.5 54.5 0 0 0 -6.76 0.38 19.18 19.18 0 0 0 -5.12 -0.16c-3.56 0.72 -4.28 1.76 -8.14 3.8 -1.78 0.94 -2.98 0.98 -4.16 1.82 -0.16 0.12 -0.22 0 -0.24 -0.1 -0.58 -6.4 -1.54 -6.4 -1.1 -10.94 0.5 -5.08 -0.84 -8 -0.76 -15.86a54 54 0 0 1 1.88 -9.28c0 -0.36 -0.26 -0.38 -0.5 -0.5 -0.86 -0.36 -3.62 6.88 -2.4 16.76 0.84 6.82 0 10 0.34 12.62 0.62 4.88 0.7 1.38 1.12 6.98 0.16 2.36 -0.14 3.36 1.52 4.12 2.62 1.22 2.98 0.8 2.98 1.52 0 1.52 0.84 7.14 0.86 7.68 0.14 2.62 -4.62 8.98 -6.28 12.38 -0.2 0.4 -2.74 0.22 -5.42 0 -20.9 -2.46 -26.94 -1.36 -48.58 -10 -0.5 -0.2 -0.44 -0.54 -0.2 -1.14s2.6 -5.44 3.58 -8.36a11.12 11.12 0 0 0 0.58 -2.92 25.64 25.64 0 0 1 0.2 -7.2 5.6 5.6 0 0 0 0.26 -1.28c0.3 -3.38 1.86 -2.62 10.74 -10.54 1.66 -1.5 7.18 -9.86 6.7 -11.5 -0.38 -1.34 -2.7 3.36 -3.22 4.28 -5.7 10.1 -14.32 12.12 -15.4 15.54a25.18 25.18 0 0 0 -1.04 8.3c0 6.82 1.44 3.42 -8 -1.76 -1.02 -0.58 -0.94 0 2.7 -4.34 0 0 1.84 -2 2.32 -2.42a46 46 0 0 0 5.3 -6.58c2.94 -4 4.2 -6.88 8.18 -9.28 13.74 -9.44 13 -8.94 13.38 -8.02Zm34.34 49.12c0.36 -0.66 1.12 7.2 1.12 7.52 0 2.14 1.32 2 -5.86 1.1 -0.62 -0.08 -0.52 0.78 4.66 -8.62Zm-66.7 -16.7a27.24 27.24 0 0 1 7 4.8c0.94 0.84 1.02 0.42 0.28 1.9 -3.58 7.14 -2.96 7.16 -4 6.88 -10.14 -2.76 -12.48 -7.44 -13.3 -2.62 0 0.28 -0.98 -0.4 -1.22 -0.56s0.46 -0.8 1.56 -1.72c1.58 -1.34 4 -4 5.08 -4.86 4.48 -4.02 2.44 -4.54 4.52 -3.82Zm24.16 37.82c2.92 -1.54 -4.76 -3.62 -1.84 -3.68a61.36 61.36 0 0 1 8.76 1.7c1.76 0.34 12.56 2.74 10.62 2.78 -7.12 0.18 -6.86 1.36 -9.62 3.02 -4.88 2.92 -13.5 25.66 -14.14 24.72 -3.32 -4.92 -6 -5.34 -9.16 -9.56 -2 -2.56 -1.28 -2.46 -8.16 -6.56 -1.28 -0.68 18.6 -9.86 23.46 -12.42ZM285 98c-0.6 0 -0.68 -0.14 -0.74 -0.72 -0.26 -2.68 -0.66 -3 2.6 -5a1.72 1.72 0 0 1 0.56 -0.22c0.44 -0.12 0.56 0 0.56 0.54 -1.24 6.52 1.06 5.68 -2.98 5.4Zm37 34c0.9 -0.58 1.06 -0.62 1.06 -0.58l0 1.36c0.1 2.22 4.1 -2 3.7 -1.16 -0.22 0.46 -0.74 1.42 -1.32 2.38 -0.3 0.52 -0.5 1.18 0.5 0.82s1.36 -0.68 1.4 -0.54 -1.22 2.22 -0.1 2 0.92 -0.4 1.82 -0.38c-1.72 2.72 -10 7.74 -13.34 7.72a4.86 4.86 0 0 1 -4.18 -8c0.76 -0.88 0.52 -0.32 6.22 -4.56a2.3 2.3 0 0 1 1.26 -0.74 10 10 0 0 0 2.16 -0.84c0.28 -0.12 0.52 0 0.4 0.3 -0.24 0.88 -0.84 2.84 0.42 2.22Zm-54 -60.68c2 -2.98 -2.68 -5.78 -0.72 -12a4.38 4.38 0 0 0 0 -1.02 1.14 1.14 0 0 0 -0.84 -1.3c-2.94 -1.28 -2.92 -2.86 -3.52 -2.92s-0.24 -1.26 -1.46 -1.04c-0.84 0.12 0.1 -0.28 0 -5.16 -0.14 -4 0 -4 -0.42 -4.7s-0.8 -2.16 -2.92 -5.6c-0.72 -1.14 -0.74 -1.08 0.58 -1.42a8.26 8.26 0 0 1 5.1 0.56c0.42 0.16 0.1 0.42 -0.58 1.2 -1.88 2.1 -1.84 4 -0.44 2.38a22 22 0 0 1 2.84 -2.78 12.62 12.62 0 0 1 9.66 -2.76c1.58 -0.18 0.3 -1.14 -2 -1.52 -0.28 0 0.72 -2 1.24 -2.8a27.58 27.58 0 0 1 2.86 -3.26c0.54 -0.56 0.62 -0.62 0.92 0a16.96 16.96 0 0 1 2 7.34c0 0.4 -0.12 0.5 -0.6 0.56s0 1 0.42 1.38c2.22 2 3.14 4 4.98 5.68a3.72 3.72 0 0 0 2.44 1.18c0.36 0 0.7 0 0.62 0.26 -0.24 0.7 -2 1.1 -1.1 1.88a1.06 1.06 0 0 1 0.56 0.92 11.58 11.58 0 0 1 -1.04 5.12c-0.54 1.16 -0.22 1.46 0 1.54a0.98 0.98 0 0 0 1 -0.4c0.3 -0.78 0 0.34 9.38 3.78 6.82 2.52 3.82 2.34 5 3.26 11.86 9.34 9.24 17.34 11.16 20.5 4.6 7.6 2.46 13.44 5.14 16.52 0.82 0.96 0.88 0.14 2.26 1.66s2.84 1.36 5.42 4.34c4.74 5.5 5.56 4.58 8.2 12.86 0.36 1.16 0 0.48 0.66 6.8 0.34 4 -2.86 10.9 -4.16 11.42 -0.9 0.36 -2.24 0.98 -2 0.24s1.12 -1.76 -1.1 -0.8c-0.64 0.26 0 -0.62 0.64 -2.44 0.2 -0.62 -0.2 -0.92 -0.76 -0.58s-2 1.3 -3.38 2c0 -0.6 0.12 -2 -0.1 -2.16s-0.68 0.32 -1.22 0.54c-0.88 0.36 0.66 -2 0 -2.72s-0.84 0 -2.34 0.88c-1 0.58 1.42 -1.84 2.2 -4a20.6 20.6 0 0 0 0.14 -6.66c-0.4 -2.98 -2 -2.78 -3.9 -6.46 -3.88 -7.42 -7.5 -7.5 -12.32 -9.84a27.28 27.28 0 0 0 -5.74 -1.48c-0.32 0 -0.42 0 -0.78 -2.26 -0.96 -6 -1.34 -6.72 0.5 -11.36a6 6 0 0 1 5.14 -3.22c2.34 0 2 -1.4 1.5 -1.62s-0.52 -0.2 -3.48 0.26c-2.58 0.4 -2.38 3.2 -0.78 -4 0.72 -3.2 0 -8.26 -1.06 -8.48 -0.22 0 -0.9 0 -0.76 0.2s-0.14 0.58 0 0.86a14 14 0 0 1 -0.22 9.08c-0.28 0.76 -0.48 2.18 -0.7 2.82a40.4 40.4 0 0 0 -2.42 8c-0.5 4.18 1.26 8.82 1.1 10.22s-1.28 -1.84 -1.8 -0.28c-0.34 1.04 0.78 1.44 0.86 2.46a3.06 3.06 0 0 1 -0.42 1.2c-0.5 1.12 -2.42 -4.52 -2.8 -1.52 -0.12 0.94 1.82 2.74 0.66 2.82 -0.26 0 -0.98 0 -1.14 -0.2a12.34 12.34 0 0 1 -1.06 -2.34 1 1 0 0 0 -0.78 -0.5c-1.04 0.18 -0.28 1.56 0 2.22s0 0.48 -0.16 0.44c-1.26 -0.86 -2.14 -2.12 -3.04 -6 -1.04 -4.28 1.32 -8.7 1.04 -13.02 -0.1 -1.18 0.2 -7.5 0.2 -7.54 0.2 -2.5 -0.98 -3.82 -1.7 -6 -0.34 -1.04 -1.5 -0.36 -1.36 0.32 0.5 2.28 1.32 3.04 1.52 4.48a15.66 15.66 0 0 1 -0.12 3.64c-0.12 10.22 0 9.2 -1.06 9.44 -3.34 0.74 -6 3.06 -4.88 6.84 0.22 0.74 -0.44 0.38 -0.86 0.34 -2 -0.16 -1.06 0 -2 -1.2 -4.42 -6 -6.6 -5.18 -5.3 -7 2.3 -3.2 5.42 -0.18 1.04 -7.5a13.7 13.7 0 0 1 -1.32 -2.78 0.72 0.72 0 0 1 0.26 -0.8c2.58 -2.8 3.34 -3.24 3.26 -5.78 0 -1.3 -1.38 -0.76 -1.44 0a3.48 3.48 0 0 1 -0.86 2.2c-5.78 6 -4 3.14 -3.88 8.22 0 1.38 -1.38 2 -1.54 1.64a17.04 17.04 0 0 1 -0.52 -1.72c-0.2 -1.26 -1.42 -1.1 -1.28 0.22 0.24 2.18 1 2 0.4 2.24s-1.26 0.56 -1.58 -0.16c-0.88 -2 -0.38 -2.34 -1.22 -2.38 -1.38 0 0.14 2.88 -1.24 1.54a13.66 13.66 0 0 1 -1.22 -4.92c0.14 -3.64 1.98 -4.5 4.54 -8.1Zm6.68 11.52c2.46 4.46 2.22 2 -0.78 4.86 -1.22 1.18 -0.6 2.12 -1.26 1.76 -5.4 -2.9 -4.78 -1.88 -1.36 -3.24 4.9 -1.96 -0.84 -11 3.34 -3.38ZM232.52 63.7a19.66 19.66 0 0 1 13.04 0 16 16 0 0 1 7.38 4.7c4.56 4.74 4.92 9.8 7.7 14.38s10.58 6.52 14.74 10.4c2.58 2.38 5.36 5.86 5.28 9.22a14.16 14.16 0 0 1 -0.8 6.58 11.86 11.86 0 0 1 -3.86 5.46c-0.28 0.24 -2.72 2.14 -3.1 1.86s0.46 -2.96 -0.44 -6c-0.1 -0.34 -0.44 -0.38 -0.76 -0.18 -0.8 0.5 -0.26 2.48 -3.04 5.14 -1.5 1.44 -5.2 4.56 -4.68 2.56a20.4 20.4 0 0 0 0.32 -7.86c-0.1 -0.7 -0.94 -0.78 -1.06 -0.14 -0.84 4.7 -6.14 9.2 -6.14 7.7a30.36 30.36 0 0 0 -1.22 -12c-0.38 -1.68 4.9 -0.2 4.32 -10.44 -0.34 -5.88 -4.72 -7.38 -7.74 -5.22a5.26 5.26 0 0 0 -2.28 3.56c0.14 1.02 -0.94 1.26 -2.56 1.8 -3.36 1.12 -7 -0.92 -10 -2.94 -1.64 -1.12 -4.66 -5.02 -10.88 -7.3 -4.5 -1.64 -7.34 2.76 -9.1 -0.6a5.88 5.88 0 0 1 0.12 -4.16 30.4 30.4 0 0 1 4.72 -8.98c4.08 -4.8 6.5 -6.48 9.98 -7.54ZM206 90.68c-0.46 -4.2 2.26 -5.86 6.18 -12.36 2.94 -4.9 8.18 -10 10.42 -9.2a43.8 43.8 0 0 0 -3.48 5.42c-0.88 1.66 -0.76 2 -1.7 2 -4 0.24 -2.76 1.72 -2.12 1.54 2.88 -0.8 2 0.12 1.18 2.74 -0.28 0.88 -0.14 0.98 -0.56 1.04 -4 0.5 -8 3.64 -7.26 4.4s0.16 -1.1 7.26 -3.1c0.42 -0.12 0.52 0.9 0.52 1.02a3.24 3.24 0 0 0 0.94 2c1.16 1.64 -6.18 1.58 -7.7 5.34 -0.48 1.16 0 2.9 0.66 2.7 1.18 -0.3 -0.72 -1.58 1.52 -3.22 0.52 1.28 -1.28 4.5 4.8 13.86 4.32 6.68 2.26 10.36 8 15.6 2.18 2 10.16 6.56 9.06 7.18 -1.68 0.92 -5.42 -0.82 -6.96 -2.22 -0.18 -0.16 -0.94 -0.6 -1.28 -0.32 -1.28 1.08 3.1 6.3 3.44 6.76 1.84 2.38 3.18 2 -0.2 2.16 -6.74 0.22 -10.28 -3.48 -14.18 -8.7 -0.8 -1.08 -1.56 0 -1.04 0.66 3.78 5.62 2.28 2 3.64 8.42a10.28 10.28 0 0 1 -4.76 -3.8c-5.16 -6.38 -1.72 -12.92 -0.46 -19.12 0.82 -4 -0.84 -6.66 -1.34 -9.24 -0.8 -4.24 0.48 -3.88 0.22 -4.96 -0.18 -0.7 -0.74 -0.44 -1.74 -1.04 -3.06 -1.68 -2.82 -2.24 -3.06 -5.56Zm-25.74 73.68c0.9 -3.22 7.26 -26.36 7.26 -26.36s3.68 -19.54 9.78 -25.84a29.06 29.06 0 0 1 12 -7.64c0.5 0 0.84 0.62 1.36 4.48 -0.78 7.74 -6.22 14 0.5 22.66 2.26 2.94 8.72 6.94 7.58 3.84a11.34 11.34 0 0 1 -0.82 -3.66c3.04 2 2.98 2.64 8 3.32a17.22 17.22 0 0 0 6.56 -0.16c2.28 -0.56 -1.74 -2 -4 -6 -1.7 -2.88 0.66 1.8 7.04 -0.22 1.76 -0.58 2.82 1.38 6.9 -0.26 0.62 -0.26 1.06 -0.64 1.28 -0.26 0.54 0.92 0.4 1 -6.74 5.56 -8.56 5.5 -9.28 4.92 -14 12.28 -6 9.26 -13.42 13.86 -13.42 16.26 0 1.64 -0.14 1.42 -1.38 2.68a56.46 56.46 0 0 1 -8.34 7.62 0.34 0.34 0 0 1 -0.28 0c-8.28 -4.74 -2.62 -6.22 -19.74 3.76 -0.7 0.42 -0.18 -0.32 -2.52 -1.4 -0.66 -0.28 1.78 -6.44 2.98 -10.66ZM178 176.98c1.34 0.42 -17.64 12.22 -17.86 11.6 -2.5 -6.58 -1.84 -8.58 -6.82 -12.58a24.76 24.76 0 0 0 -6.98 -4 40.5 40.5 0 0 0 -4.34 -1.54c-1 -0.28 -1.32 -0.7 -0.18 -0.72s1.78 -0.14 2.4 -0.1l3.82 0c22.86 0.96 24.88 5.7 29.96 7.34Zm-62 7.72c-1.74 -4.88 -3.76 -10 -1.86 -14.94 2.92 -7.5 3.42 -8.5 6.54 -11.06 7.32 -6 15.54 -1.34 21.18 0.24a21 21 0 0 1 7.4 4.66c8 6.96 5.66 4.64 4.48 5 0 0 -4.6 -0.12 -5.66 -0.22 -2.3 -0.24 -12.94 0.22 -10 1.76 2 1.12 2.92 0.52 5.7 2.24 1.6 0.98 2.58 0.54 6 2.74a34.78 34.78 0 0 1 4.22 3.28c2.12 2.4 0.5 0 -7.48 1.12a37.54 37.54 0 0 0 -11.72 3.2c-0.9 0.44 -0.34 1.4 0.5 1.32a59.26 59.26 0 0 1 6.26 -0.42c9.48 0.22 15.24 4.48 15.56 4.96 -0.22 0 -18 -5.26 -27 0.4 -1.06 0.64 -1.06 0.66 -0.76 1.86a10.58 10.58 0 0 0 0.56 2c0.72 1.54 0 1.26 0.52 2.68a3.04 3.04 0 0 1 0 1.88c-0.14 0.52 -3.84 -1 -7.9 -1.22 -2.92 -0.16 -3.14 0.16 -4 -1.06 -1.04 -1.66 -1.76 -8.16 -2.54 -10.42ZM66 297.72c1.28 0.72 1.24 0.52 0.42 3.14 -0.32 1.06 0.8 1.28 1.1 0.46s0.54 -1.8 0.8 -2.38 1.26 0.16 1.2 0.74a14.58 14.58 0 0 1 -1.24 3.62c-0.12 0.36 -0.5 0.18 -0.5 0.18a10 10 0 0 1 -3.06 -0.84c-1.1 -0.6 -0.22 -1.34 0.2 -2.72 0.3 -0.98 0 -1.12 -0.34 -1.22 -0.88 -0.22 -1.08 3.3 -1.84 2.82s-0.98 -0.62 -0.56 -1.34c1.66 -3 -0.52 -4.84 3.82 -2.46Zm-6 -1.04a2.76 2.76 0 0 1 0.96 -2.18c0.46 -0.32 1.04 -0.32 1.18 0.28a8.44 8.44 0 0 1 -0.8 3.86c-0.16 0.44 -0.6 0.96 -0.8 1.46s-0.66 -0.52 -0.96 -0.76 0.28 -0.46 0.42 -2.66ZM73.06 316c-2.64 4.56 -1.44 4.78 -3.16 9.4 -3 8 5.7 19.56 -19.74 15.26a10.8 10.8 0 0 0 -4.7 0c-9.6 1 -11.34 4.78 -16.24 3.56 -2.92 -0.72 -1.64 0.46 -5.88 -0.94 -0.6 -0.2 -0.62 -0.34 -0.48 -1 0 -0.26 0 -0.58 0.24 -0.76 0.56 -0.58 -0.18 -1.34 -1.04 -1.06s-0.8 1.22 -0.84 1.38c-0.18 0.58 -0.6 0.26 -2.42 -0.22a6 6 0 0 1 -2.34 -1.62c-1.28 -1.48 -5.6 -0.44 -4.56 -6 0.18 -1.02 2.2 -0.98 2.72 -0.9 3.4 0.56 10 -1.3 11.16 -1.36 7.66 -0.42 14.38 -8 19.02 -9.18 4.12 -1.08 4.5 -3.8 5.4 -4 0 0 3.1 -3.32 3.54 -3.8 1.48 -1.7 0.52 -1.7 3.1 -5.8 0.78 -1.24 0.6 -1.24 2.98 -7.28 0.2 -0.5 0.32 0.16 4.54 2.22 1.82 0.88 4 0.88 7.58 2.62a11.38 11.38 0 0 0 3.84 1.24c1.06 0.24 2.66 -1.02 -2.72 8.24Zm7.44 -10.2c-0.14 0.6 -0.26 1.14 -1.38 1a2 2 0 0 1 -0.94 -0.38c-0.4 -0.3 0.2 -0.18 1.12 -2.92 0.28 -0.78 -0.34 -1.34 -0.84 -0.8a26 26 0 0 1 -1.68 3.34c-0.52 0.5 -2 0 -4 -0.6 -0.92 -0.3 -0.56 -0.32 0.4 -2.98 0 -0.2 0.12 -1.1 -0.4 -1.04 -0.9 0.12 -1.14 2.72 -1.82 3.1 -0.18 0 -0.76 -0.24 -1.08 -0.28s-0.28 -0.6 -0.2 -0.84c1.84 -4.2 0.48 -4 2.42 -3.4 2.96 0.86 3.36 0.86 3.12 1.38a24.48 24.48 0 0 0 -0.82 3.22c-0.14 0.78 0.76 0.86 1.08 0 1.14 -3.06 0.78 -3.1 1.16 -3.34s0.74 -0.14 1.08 0c1.76 0.56 2.84 0.1 4 0.64s-0.46 1.06 -1.22 3.92Zm7.3 -16.72s-1.74 3.16 -2.48 4.24c-3.7 5.46 -3.56 7 -5.16 6.9a31.56 31.56 0 0 1 -7.46 -1.44 29.78 29.78 0 0 1 -8.48 -4c-1.28 -1.08 -0.36 -1.52 0.9 -5.42 0 0 2.98 -8.28 3.28 -8.76 0.74 -1.12 -1.3 0.6 9.64 4.5 3.2 1.14 7.04 3.14 9.32 3.1 0.32 0.1 0.64 0.6 0.44 0.9Zm8 -11.42c-4.66 7.24 -2.86 4.94 -5.22 7.78 -0.74 0.9 -0.74 1.1 -2 1.04 -8 -0.92 -6.3 -2.1 -11.7 -3.56a13.04 13.04 0 0 1 -4 -1.54c-0.64 -0.46 -3.08 -2.42 -3.2 -2.62a14.8 14.8 0 0 0 -3.68 -3.44c-1.3 -1.26 0.5 0.2 7.88 -9.9 2.22 -3.02 12.62 -19.54 14 -23.38 0.32 -0.98 -0.82 -1.18 -1.2 -0.56 -1.1 1.74 -3.18 6.26 -8.2 14.24 -0.92 1.48 -6 9.7 -5.5 8.14 4.1 -12.28 3.74 -13.22 6.32 -19.06 8.24 -18.84 7.78 -14 12.9 -30 4.64 -14.62 11.3 -17.08 23.22 -17.28a77 77 0 0 1 11.84 1.12c24.92 3.02 31.22 6.92 59.06 16.86 9.16 3.26 15.64 10 20 6.24a10.78 10.78 0 0 0 3.84 -6 1.28 1.28 0 0 1 1.84 -0.86c10.22 6.9 2.88 0.9 10.46 9.26a32.6 32.6 0 0 1 6.14 5.86c1.4 1.76 1.48 1.74 0.9 3.16 -3.78 9.18 -5.16 5.14 -28 10.28a76.64 76.64 0 0 1 -15.58 2.36c-13.56 0.22 -23.72 2.82 -24.92 1.02 -1.56 -2.34 -8.36 -6 -10.62 -7.56 -14 -10.24 -8.74 -8.62 -24 -14.78 -2.66 -1.08 -5.88 -3.78 -8.42 -3.12 -2.18 0.58 -4 2.36 -3.24 4.78 1.04 2.9 2.5 2.46 1.2 3.1 -3.16 1.56 -0.4 4.74 -0.42 4.78s-1.1 1.32 -1.04 2.2a4.78 4.78 0 0 0 1.14 2.32c0.34 0.48 -0.94 1.16 0.92 3.1 0.5 0.52 -0.22 1.18 0.54 2.48 0 0 0.14 0.3 0 0.36s0 0.56 0 0.86 -0.26 1.14 -1.8 4.66c-2.76 6.76 -7.26 8.48 -19.52 27.68Zm22.14 -37.18c-0.56 -0.48 -0.44 -0.62 -0.12 -1.32 0.6 -1.38 -0.72 -1.28 -1.12 -2.26 -0.9 -2.2 3.06 -1.22 0.4 -4 -0.38 -0.38 -0.98 -1.36 -0.46 -2s0.48 -0.36 3.7 1.46c1.04 0.6 2 0 1.64 -0.82 -0.68 -1.24 -7.7 -5.5 -4.8 -8 1.64 -1.36 3.44 -0.12 4.88 0.54 26 11.86 14 8 28 16.98 0.4 0.26 10.78 6.4 9.16 6.62s-2.96 0.72 -4.5 0.94c-4.96 0.74 -6.88 0.68 -7.72 0.82 -7 0.56 -18.36 4.56 -27.44 -4.94 -2.02 -2.12 0.58 -2.06 -1.68 -4Zm-3.94 18.7c-0.9 -1.52 -1.3 -1.7 -0.72 -2.3a33.52 33.52 0 0 0 5.26 -10.14c0.22 -1.02 0 -0.38 4.26 2.82 3.72 2.8 9.8 3.04 12.28 3.04 9.46 0 27.54 -3.1 28.7 -3.18 30 -2.38 24.3 -1.08 38.8 -4 30 -6.2 22 -0.36 30 -14.42 0.18 -0.34 3.6 -8 3.62 -8.12 7.62 -18.84 11.84 -19.44 24.64 -18.46 3.76 0.3 4 -0.24 5.06 0.42a198.58 198.58 0 0 0 27.14 5.78c4.78 0.3 10.76 -1.56 11.12 -6.22 0 -0.8 0.6 -0.44 3.74 0.42a10 10 0 0 1 7.82 8.1 6.82 6.82 0 0 1 -3.2 6.38c-1.78 1.26 -4.16 2.58 -12.56 2.14 -9.14 -0.46 -26.26 -3.58 -33.52 -3.3 -5.68 0.22 -8.52 -0.12 -11.26 4.48 -17.76 29.74 -14 31.52 -25.68 36.5 -18.24 7.74 -76 19.32 -95.22 14.42 -6.56 -1.76 -12.28 -0.66 -20.28 -14.36Zm68.22 39.16c-0.46 0.86 -14.54 26.52 -19.48 35.1 -0.4 0.7 -0.56 1.14 -1.42 1.24a50.54 50.54 0 0 1 -5.5 -0.18c-0.94 -0.14 -0.66 -0.88 -0.5 -1.48 0.62 -2.32 4 -9.72 6.84 -17.06 6 -15.06 6.26 -17.5 7.52 -19.4 0.42 -0.42 8.58 1.02 9.26 1.14 1.76 0.3 3.4 0.4 3.28 0.64Zm104.52 56c0.5 1.04 -4.82 0.78 -6.22 0.74 -2 0 -25.78 -45.54 -32.3 -56.12 -0.78 -1.28 -2.18 -0.92 -0.84 1.52 2 3.78 2.46 4 1.02 3.68s-13.74 -1.18 -13.84 -1.18c-3.2 0 -16 -1.72 -16.3 -1.74s-0.52 0 -0.52 -0.78c0 -2.1 0.76 -6.76 0.88 -9.42a1.52 1.52 0 0 0 -0.34 -1.2c-0.36 -0.32 -1.3 -0.76 -1.48 0.3 -2.44 15.9 -6 74.92 -7.04 82.38 -0.18 1.14 -0.94 0.96 -2.36 1.22a6.54 6.54 0 0 1 -4 -0.5c-0.48 -0.3 -0.64 -0.48 -0.7 -3.38 -0.2 -8.48 -1.4 -37.42 -1.38 -37.72 0.12 -1.36 -0.34 -44 -0.34 -44a0.78 0.78 0 0 0 -1.54 0.18c-0.56 9.48 0 11.06 -0.74 10.74s-69.32 -9.86 -77.72 -11.72c-1.38 -0.3 -1.82 -1.2 -2.24 -0.9 -2.72 2 6.68 3.26 10 3.6 0.52 0 -35.22 65.38 -36.84 65.64l-1.42 0c-4.46 -0.1 -5.74 0.22 -4.52 -2 3.56 -6.34 27.56 -72.9 32 -85.34 0.32 -0.92 0.9 2 5.84 4.16 24 10.78 137.3 14.72 137.38 16.12 0.1 0.34 15.84 45.62 25.56 65.64Zm-25.6 -68c-18 -1.48 -73.6 -3.4 -114.66 -10.14 0.96 -0.2 6.38 0 6.38 -0.12 13.14 0 52.46 -5.6 73.44 -13.6a33.34 33.34 0 0 0 10.64 -5.28 22.92 22.92 0 0 0 4.16 -5.62c4 -6.28 10 -17.76 13.4 -24s4.36 -6.42 6.16 -6.96c10.16 -3.06 33.68 3.68 44.74 2.7 9.26 -0.8 10.84 -7.58 3.08 5.72 -20.96 36 -21.76 41.48 -29.38 53.68a6.8 6.8 0 0 1 -5.04 2.86 59.88 59.88 0 0 1 -12.92 0.68Z" fill="#000001" stroke-width="1"></path>
      <path d="M278.46 35.4c0.4 -1.72 -0.24 -6.86 -1.28 -6.34 -0.54 0.28 0.16 1.8 0.38 3.12a12.36 12.36 0 0 1 0 3.18c0 0.64 0.68 1.02 0.9 0.04Z" fill="#000001" stroke-width="1"></path>
      <path d="M271.7 52.86c0.22 -0.2 0.44 -0.24 1.1 0 1.48 0.34 3.36 0.18 4 -0.92 1.08 -1.62 1.12 -2.48 0.98 -2.9s-0.72 -0.32 -0.96 0.2c-0.6 1.28 -1.48 2.48 -3.06 2.38 -3.3 -0.24 -2.22 -0.78 -1.82 -2.84a1.32 1.32 0 0 0 -0.22 -1.06c-0.48 -0.42 -1.7 0.5 -1.84 0.62 -0.94 0.84 -2.64 0.42 -1.84 1.7a1.6 1.6 0 0 0 0.8 0.64 10.82 10.82 0 0 1 1.68 0.72c0.2 0 -0.24 1.66 -0.74 2.16a2.26 2.26 0 0 1 -2.34 0.7c-0.58 -0.2 -0.98 -0.72 -1.2 -0.76 -0.7 -0.14 -0.42 1 0.28 1.56a3.02 3.02 0 0 0 3.4 0.18 3.54 3.54 0 0 0 1.78 -2.38Z" fill="#000001" stroke-width="1"></path>
      <path d="M275.54 102c1.58 4.92 -0.94 7.2 0.56 8 0.88 0.42 1.22 -3.06 1.38 -4 -0.6 -4.52 -0.56 -5.52 -4 -9.78 -0.26 -0.34 -0.84 -0.14 -0.98 -0.64 -3.2 0.16 0.92 -0.14 3.04 6.42Z" fill="#000001" stroke-width="1"></path>
      <path d="M273.64 46.6c0.92 -0.46 0 -2.84 -1.36 -2.2a1.06 1.06 0 0 0 -0.34 1.18 1.22 1.22 0 0 0 1.7 1.02Z" fill="#000001" stroke-width="1"></path>
      <path d="M269.6 134c0 -3.26 0.24 -4 -0.66 -4 -1.76 -0.22 0.3 17.56 1.18 18.84 1.88 2.54 -0.6 -8.98 -0.52 -14.84Z" fill="#000001" stroke-width="1"></path>
      <path d="M267.56 100.7c0.3 1.8 1.72 7.06 0.24 9.4 -1.7 2.66 -0.16 2.86 0.22 2.14 1.52 -2.94 2 -3.32 1.24 -8.66s-0.88 -6.54 -6 -13.3c-0.36 -0.46 -1.34 -0.36 -1.12 0.16 0.88 2.34 4.66 5.4 5.42 10.26Z" fill="#000001" stroke-width="1"></path>
      <path d="M266.36 49.26c1 -0.76 -0.44 -2.72 -1.36 -2a0.76 0.76 0 0 0 -0.22 1c0.26 0.82 0.98 1.44 1.58 1Z" fill="#000001" stroke-width="1"></path>
      <path d="M260.7 106.42c0.22 0.78 0.34 2 0.68 2s0.48 0.22 0.58 -0.24a8.48 8.48 0 0 0 -0.54 -3.28c-0.5 -1.08 -0.76 -1.64 -1.14 -1.44s-0.12 1 0.42 2.96Z" fill="#000001" stroke-width="1"></path>
      <path d="M237.42 169.74c-0.38 0 0 0.4 0 0.58s-0.54 0.16 -0.18 0.36a23.74 23.74 0 0 0 16 3.56s5.52 0.18 4.76 -1.06c-0.52 -0.84 -0.32 -0.58 -3.68 -0.32 -1.72 0.14 -0.72 -0.34 -2.46 0 -6.44 1.14 -13.22 -3.4 -14.44 -3.12Z" fill="#000001" stroke-width="1"></path>
      <path d="M254.1 98.76c1.12 0.44 0.28 1.04 0.18 1.74 -0.26 1.66 2.42 0.18 1.7 -1.78s-2.32 -0.86 -2.32 -2.38c0 -2 1.28 -4.1 2.5 -2.72a3.1 3.1 0 0 0 0.38 0.48 0.54 0.54 0 0 0 0.84 -0.28c0.18 -2.42 -4 -3.26 -4.96 1.58 -0.42 2.04 0.42 2.88 1.68 3.36Z" fill="#000001" stroke-width="1"></path>
      <path d="M254 76.74c2 4 2.22 4.36 2.88 4s0.22 -1 -2 -5a23.82 23.82 0 0 0 -8.54 -8.84c-2.6 1.24 3.76 2.12 7.66 9.84Z" fill="#000001" stroke-width="1"></path>
      <path d="M239.84 70c4.52 2.4 10.46 12 13.72 14.32 0.58 0.42 1.1 -0.42 0.72 -0.8 -1.54 -1.52 -1.64 -1.52 -1.64 -1.5a68 68 0 0 0 -4.82 -6.3c-6.88 -8.62 -11.62 -8.24 -12 -8.44 -1.08 0.72 0.68 0.88 4.02 2.72Z" fill="#000001" stroke-width="1"></path>
      <path d="M251.18 87.06c-2 -0.38 -2.6 -2.56 -3.58 -2 -0.66 0.38 2.92 4.54 4.34 2.9 -0.14 -0.42 -0.28 -0.8 -0.76 -0.9Z" fill="#000001" stroke-width="1"></path>
      <path d="M221.82 79.7a8.38 8.38 0 0 1 3.08 -1.3 25.16 25.16 0 0 1 4.62 0.52c8 3.48 11.68 11.88 17.52 12.62 1.66 0.22 1.78 -1.04 0.88 -1.26 -7 -1.8 -7.18 -5.6 -11.54 -8.5a39.78 39.78 0 0 0 -5.02 -3.54 11 11 0 0 0 -8.32 -0.68c-0.38 0.18 -0.82 0.48 -1.8 1.06s0.02 1.38 0.58 1.08Z" fill="#000001" stroke-width="1"></path>
      <path d="M227.74 72.16a9.72 9.72 0 0 0 2.14 -0.32 12.58 12.58 0 0 1 6 2.2c5.7 4 7.26 6.76 8.78 7.78 0.76 0.52 2 -0.3 -3.3 -5.04 -4.38 -4 -8.54 -7.32 -14.16 -5.66 -0.64 0.2 -0.02 1.16 0.54 1.04Z" fill="#000001" stroke-width="1"></path>
      <path d="M237.68 172.34c-0.8 -0.38 -2.64 0.96 3.32 3.52 0.94 0.4 2 0.66 2.92 1.08a0.84 0.84 0 0 0 1.08 -0.8c-0.94 -1.08 -2.68 -1.24 -3.54 -1.66a26.62 26.62 0 0 1 -3.78 -2.14Z" fill="#000001" stroke-width="1"></path>
      <path d="M229.4 119.18c0.32 0.58 1.38 -1.14 2.28 0 0.36 0.46 1.12 0.46 1.74 1.5 0.86 1.48 1.86 2.76 3.5 2.72 4.5 0 4.46 -7.58 4.8 -10.74 0 -1 0.48 -0.44 1.02 -0.22s1.14 -0.26 0.78 -0.86c-1.3 -2.18 -4.46 -1.72 -4 -0.44 0.22 0.54 1.3 0.22 0.82 0.74a9.74 9.74 0 0 1 -4.84 2.66c-1.88 0.64 -7.08 2.96 -6.1 4.64Zm7.4 3c-0.56 -0.2 -0.8 -1.64 0.6 -3.18 4.84 -5.38 1.54 3.94 -0.6 3.18Zm1.74 -7.3c0.52 -0.18 0.62 -0.46 1.68 -0.96 0.5 1.76 -5.26 3.78 -7.1 4.46 -0.28 0.1 -1.06 -0.36 -1.28 -0.46 -0.92 -0.4 5.7 -2.68 6.7 -3.04Z" fill="#000001" stroke-width="1"></path>
      <path d="M225.06 100a3.84 3.84 0 0 0 1.6 -0.52c4.92 -4 6 -3.14 7.36 -2.48 0.14 0 1.76 0 0.76 -1.08a4.16 4.16 0 0 0 -4.56 -0.52c-2 0.64 -4.26 3.84 -6 3.16 -0.7 -0.28 -1.68 1.12 0.84 1.44Z" fill="#000001" stroke-width="1"></path>
      <path d="M230.92 103.56c-0.62 -0.82 -2 0.36 -1.06 1.76 0.74 1 2.44 0.06 1.06 -1.76Z" fill="#000001" stroke-width="1"></path>
      <path d="M230.6 112.36c0.12 -0.4 -0.26 -1.14 -0.88 -0.66 -1.5 1.18 -0.76 1.5 -3.36 1.68 -0.32 0 -2.16 -0.54 -1.04 -1.76 2 -2.1 1.68 -3.86 0.68 -5.14a0.52 0.52 0 0 0 -0.9 0.36c0.28 1.4 0.9 2.14 -0.46 3.5 -4.1 4.16 4.5 6.5 5.96 2.02Z" fill="#000001" stroke-width="1"></path>
      <path d="M223.64 109.16c0.48 -1.32 -1.42 -2.14 -1.72 -1.44 -0.66 1.56 1.38 2.38 1.72 1.44Z" fill="#000001" stroke-width="1"></path>
      <path d="M223.16 129.16c0.66 -0.86 -1.26 -1.08 -2.86 -3.78 -2.44 -4.16 -2.22 -18.7 -4.3 -14.62 2 6.82 0.34 10.9 3.54 15.86 0.64 1 2.9 3.5 3.62 2.54Z" fill="#000001" stroke-width="1"></path>
      <path d="M218.22 192.76c-0.86 -1.58 0.8 -2.52 -0.82 -4.4 -0.58 -0.7 0.42 -1.32 -0.12 -3.28 -0.18 -0.7 -0.62 -1.24 -0.5 -2s0.4 -1.2 0.28 -1.88 -0.76 -0.34 -1.02 0.14c-1.62 3.1 0.68 3.2 0 5.86 -0.36 1.2 0.44 1.84 0.7 2.42 0.58 1.26 -0.74 2.26 0.42 4 0.8 1.18 0 2 1.18 2.92 0.54 0.46 1.58 0.12 1.02 -0.88s-0.38 -1.48 -1.14 -2.9Z" fill="#000001" stroke-width="1"></path>
      <path d="M213.38 120.94c0.68 -0.14 0 -0.96 1 -5.26a6.7 6.7 0 0 0 0 -1.42c0 -0.32 -0.26 -0.44 -0.56 -0.46 -0.78 -0.02 -2.1 7.48 -0.44 7.14Z" fill="#000001" stroke-width="1"></path>
      <path d="M122.18 245.36c0.86 -0.64 0.72 -0.62 0.62 -0.94a6.38 6.38 0 0 1 0.66 -5.48c2.34 -3.66 -1 -5.56 -0.92 -2.7 0 2.18 -1.88 3.16 -1.62 5.86 -0.24 0.8 0.82 3.58 1.26 3.26Z" fill="#000001" stroke-width="1"></path>
      <path d="M101.22 229.22c-1 13.54 -8 19.7 -11.62 42 -0.62 3.78 -0.66 4 0 4.22 1.54 0.8 2.18 -8 4 -14.84 2.46 -9.44 10.3 -25.18 9.06 -32.22 -0.22 -0.72 -1.32 -0.98 -1.44 0.84Z" fill="#000001" stroke-width="1"></path>
    </g>
  </g>
</svg>